<?xml version="1.0" standalone="no"?>
<!DOCTYPE svg PUBLIC "-//W3C//DTD SVG 20010904//EN"
 "http://www.w3.org/TR/2001/REC-SVG-20010904/DTD/svg10.dtd">
<svg version="1.0" xmlns="http://www.w3.org/2000/svg"
 width="1162.000000pt" height="637.000000pt" viewBox="0 0 1162.000000 637.000000"
 preserveAspectRatio="xMidYMid meet">

<g transform="translate(0.000000,637.000000) scale(0.100000,-0.100000)"
fill="#000000" stroke="none">
<path d="M3912 6058 c-18 -39 -21 -79 -5 -85 11 -4 12 -8 3 -13 -8 -5 9 -14
42 -24 29 -8 65 -27 78 -41 13 -14 27 -25 32 -25 17 0 118 73 118 85 0 7 -17
27 -37 45 -83 73 -208 104 -231 58z"/>
<path d="M3708 6007 c-24 -18 -44 -40 -46 -48 -3 -18 102 -84 122 -76 19 7 25
71 9 93 -7 10 -13 25 -13 35 0 31 -29 29 -72 -4z"/>
<path d="M4413 6000 c-65 -39 -91 -122 -57 -180 17 -28 101 -90 123 -90 21 0
61 -43 61 -65 0 -49 -61 -58 -136 -20 -27 14 -50 25 -51 25 -9 0 -53 -83 -48
-91 4 -5 25 -19 48 -31 33 -17 60 -22 122 -22 121 -1 172 35 182 127 9 77 -21
111 -152 177 -39 20 -50 31 -50 50 0 45 40 53 132 25 17 -6 25 -1 37 24 24 45
20 57 -24 75 -57 23 -147 21 -187 -4z"/>
<path d="M4860 6001 c-10 -20 -190 -462 -190 -468 0 -2 26 -3 58 -3 58 0 58 0
71 38 22 60 25 62 121 62 l88 0 17 -50 17 -50 102 0 102 0 18 50 18 50 93 0
93 0 17 -50 17 -50 58 0 59 0 -24 63 c-13 34 -57 143 -97 242 l-73 180 -50 0
-50 0 -89 -218 c-49 -119 -91 -216 -93 -213 -2 2 -43 100 -91 218 l-87 213
-47 3 c-38 3 -49 -1 -58 -17z m83 -208 c14 -34 22 -64 19 -67 -7 -8 -87 -8
-95 0 -3 3 2 27 12 53 10 25 21 55 25 65 8 24 9 23 39 -51z m474 -45 c5 -27 4
-28 -39 -28 -25 0 -47 3 -51 6 -3 3 2 27 12 53 10 25 21 55 26 66 6 17 10 14
27 -25 11 -25 22 -57 25 -72z"/>
<path d="M5658 6014 c-5 -4 -8 -115 -8 -246 l0 -238 55 0 54 0 3 93 3 92 70
-92 70 -92 69 -1 c79 0 81 -10 -21 113 -35 42 -63 79 -63 84 0 4 14 16 30 25
81 46 78 187 -5 238 -32 20 -55 24 -144 28 -58 2 -109 1 -113 -4z m180 -100
c15 -10 22 -25 22 -47 0 -46 -12 -58 -59 -64 l-41 -6 0 67 c0 66 0 66 28 66
15 0 38 -7 50 -16z"/>
<path d="M6047 6014 c-4 -4 -7 -27 -7 -51 l0 -43 55 0 55 0 0 -195 0 -195 55
0 55 0 2 193 3 192 58 3 58 3 -3 47 -3 47 -161 3 c-88 1 -163 -1 -167 -4z"/>
<path d="M6437 6014 c-4 -4 -7 -115 -7 -246 l0 -238 55 0 55 0 0 95 c0 109 -1
108 100 103 l55 -3 3 -98 3 -97 55 0 54 0 -2 243 -3 242 -50 0 -50 0 -3 -97
-3 -98 -79 0 -79 0 -3 98 -3 97 -45 3 c-25 2 -49 0 -53 -4z"/>
<path d="M6887 6014 c-4 -4 -7 -115 -7 -246 l0 -238 55 0 55 0 -2 243 -3 242
-45 3 c-25 2 -49 0 -53 -4z"/>
<path d="M7196 5992 c-11 -22 -99 -237 -183 -449 -4 -10 11 -13 54 -13 l59 0
13 38 c22 60 25 62 121 62 l88 0 17 -50 17 -50 59 0 c32 0 59 3 58 8 0 4 -44
113 -97 242 l-97 235 -47 3 c-43 3 -48 1 -62 -26z m101 -244 c5 -27 4 -28 -40
-28 -25 0 -48 3 -50 8 -3 4 7 36 21 71 l26 65 19 -45 c10 -24 21 -56 24 -71z"/>
<path d="M7520 5776 l0 -246 55 0 55 0 -2 243 -3 242 -52 3 -53 3 0 -245z"/>
<path d="M4213 5813 c-7 -15 -13 -34 -13 -44 0 -25 -39 -69 -55 -63 -10 4 -12
15 -8 36 4 22 3 29 -5 24 -6 -4 -21 -2 -33 4 -17 10 -21 8 -26 -9 -6 -24 -14
-26 -30 -10 -9 9 -10 6 -6 -10 8 -32 -57 -98 -117 -116 -21 -7 -22 -6 -9 7 8
8 28 22 44 31 17 9 24 16 18 17 -24 0 -91 -32 -97 -46 -8 -20 -39 -17 -70 7
-15 12 -30 19 -33 15 -3 -3 -13 0 -21 7 -23 18 -102 16 -102 -3 0 -13 -2 -13
-11 0 -8 11 -9 9 -4 -10 16 -58 68 -119 135 -159 49 -30 69 -27 77 9 6 35 9
36 30 14 10 -9 27 -14 44 -12 22 4 29 0 34 -19 7 -30 35 -30 100 1 64 30 122
88 151 151 26 57 44 172 25 161 -8 -6 -10 0 -5 18 8 34 2 33 -13 -1z"/>
<path d="M7725 5049 c-2 -3 43 -52 101 -110 57 -57 104 -107 104 -111 0 -10
-530 -533 -544 -536 -7 -1 -94 81 -194 183 -100 103 -187 185 -192 183 -18 -6
-1649 -1640 -1700 -1703 -14 -17 -14 -17 8 -4 12 8 22 17 22 21 0 5 5 8 10 8
18 0 11 -40 -7 -41 -15 0 -15 -2 2 -9 17 -7 18 -9 2 -9 -13 -1 -16 -7 -12 -23
3 -13 -1 -32 -8 -43 -13 -16 -17 -17 -31 -6 -14 11 -16 11 -16 -3 0 -10 5 -14
10 -11 14 9 12 -8 -2 -25 -65 -76 393 367 1007 972 165 162 360 353 434 424
74 71 168 162 209 202 l75 73 190 -191 191 -191 115 113 c64 62 209 205 323
318 l208 205 110 -110 110 -110 0 270 0 270 -261 0 c-143 0 -262 -3 -264 -6z
m-2358 -2101 c-3 -8 -6 -5 -6 6 -1 11 2 17 5 13 3 -3 4 -12 1 -19z"/>
<path d="M4797 5043 c-4 -3 -7 -46 -7 -94 0 -48 -4 -91 -10 -94 -5 -3 -10 -2
-10 4 0 5 -21 19 -46 31 -75 37 -167 14 -219 -54 -80 -105 -46 -287 65 -349
46 -26 134 -20 177 11 39 28 43 28 43 -3 0 -24 2 -25 65 -25 l65 0 0 290 0
290 -58 0 c-32 0 -62 -3 -65 -7z m-43 -270 c31 -31 40 -61 33 -109 -7 -44 -23
-63 -63 -80 -89 -37 -167 73 -119 166 19 37 41 49 86 50 26 0 44 -7 63 -27z"/>
<path d="M365 5008 c-3 -7 -31 -87 -64 -178 -32 -91 -75 -209 -94 -262 l-36
-98 68 0 67 0 15 48 15 47 108 0 108 0 17 -45 16 -45 68 -3 67 -3 -25 68 c-14
37 -58 160 -99 273 l-73 205 -77 3 c-55 2 -78 -1 -81 -10z m122 -241 c17 -50
29 -95 27 -99 -7 -10 -131 -10 -138 0 -4 6 14 63 59 191 8 22 18 6 52 -92z"/>
<path d="M788 4773 c-4 -331 -10 -303 63 -303 l59 0 0 275 0 275 -60 0 -59 0
-3 -247z"/>
<path d="M1490 4745 l0 -275 60 0 60 0 0 100 0 100 53 0 c159 1 246 72 234
193 -7 74 -57 130 -133 147 -21 5 -92 10 -156 10 l-118 0 0 -275z m266 150
c21 -28 17 -82 -6 -105 -17 -17 -31 -20 -78 -18 l-57 3 -3 59 c-5 87 -2 89 69
84 45 -3 65 -10 75 -23z"/>
<path d="M2108 4901 c-120 -39 -181 -158 -144 -283 27 -94 102 -147 209 -148
68 0 110 16 160 60 82 71 86 226 8 314 -41 47 -168 78 -233 57z m140 -141 c19
-28 23 -44 19 -83 -7 -77 -59 -118 -124 -96 -45 15 -67 57 -61 121 7 70 38
100 97 96 39 -3 49 -8 69 -38z"/>
<path d="M3284 4895 c-142 -53 -180 -266 -66 -372 77 -71 224 -71 300 0 22 20
52 68 52 82 0 3 -27 5 -61 5 -46 0 -67 -5 -86 -20 -52 -40 -143 -9 -143 50 0
19 6 20 150 20 l150 0 0 54 c0 44 -6 62 -32 102 -19 26 -50 56 -70 67 -50 25
-142 31 -194 12z m145 -106 c13 -12 21 -30 19 -42 -3 -20 -9 -22 -83 -22 -68
0 -80 3 -83 17 -2 10 8 29 22 43 32 32 92 34 125 4z"/>
<path d="M3875 4898 c-16 -6 -41 -21 -56 -34 -33 -31 -39 -30 -39 6 l0 30 -60
0 -60 0 0 -215 0 -215 60 0 60 0 1 113 c1 61 4 123 8 137 8 28 39 47 94 55
l37 6 0 64 c0 36 -3 65 -7 64 -5 0 -21 -5 -38 -11z"/>
<path d="M4105 4896 c-174 -65 -179 -340 -6 -412 72 -30 185 -12 239 39 22 20
52 68 52 82 0 3 -27 5 -61 5 -46 0 -67 -5 -86 -20 -38 -30 -96 -27 -122 6 -12
15 -21 35 -21 45 0 18 10 19 150 19 l150 0 0 54 c0 44 -6 63 -32 102 -19 28
-48 57 -69 66 -51 25 -145 32 -194 14z m130 -98 c24 -11 44 -52 32 -64 -3 -3
-40 -6 -83 -7 -67 -1 -79 1 -82 15 -2 10 8 29 22 43 28 28 69 32 111 13z"/>
<path d="M2445 4888 c2 -7 25 -87 50 -178 25 -91 50 -182 55 -203 l11 -38 71
3 71 3 33 130 c18 72 33 134 34 139 1 32 22 -26 50 -141 l32 -133 74 0 c53 0
74 4 74 13 0 10 88 341 106 400 5 15 -2 17 -55 17 -34 0 -61 -3 -61 -7 0 -19
-53 -270 -60 -282 -4 -8 -20 41 -40 120 -17 74 -34 142 -37 152 -4 14 -16 17
-73 17 l-68 0 -32 -132 c-42 -178 -41 -174 -50 -157 -4 8 -17 66 -30 129 -12
63 -24 125 -27 138 -5 20 -11 22 -69 22 -46 0 -62 -3 -59 -12z"/>
<path d="M1027 4793 c-4 -3 -7 -28 -7 -55 l0 -48 170 0 170 0 0 55 0 55 -163
0 c-90 0 -167 -3 -170 -7z"/>
<path d="M2220 4170 c-11 -11 -20 -27 -20 -35 0 -21 36 -55 58 -55 28 0 62 29
62 54 0 50 -63 73 -100 36z"/>
<path d="M1493 4164 c-31 -16 -63 -66 -63 -99 0 -9 -9 -19 -20 -22 -15 -4 -20
-14 -20 -40 0 -26 5 -36 20 -40 19 -5 20 -14 20 -129 l0 -124 50 0 50 0 0 125
0 125 30 0 c28 0 30 2 30 39 0 36 -3 40 -31 46 -35 8 -34 25 5 43 23 12 27 19
24 50 -3 33 -6 37 -33 40 -16 1 -44 -5 -62 -14z"/>
<path d="M2034 4151 c-2 -2 -4 -103 -4 -223 l0 -218 50 0 50 0 0 220 c0 121
-3 220 -7 221 -36 3 -85 3 -89 0z"/>
<path d="M3002 4123 c-54 -26 -75 -83 -49 -133 13 -23 11 -28 -25 -67 -33 -37
-38 -49 -38 -91 0 -76 38 -113 131 -127 33 -5 61 -1 108 15 57 19 65 20 80 5
16 -14 121 -23 121 -10 0 3 -18 22 -40 42 -22 21 -40 45 -40 53 0 8 11 35 25
59 14 23 25 47 25 52 0 5 -20 9 -44 9 -37 0 -48 -5 -65 -27 l-21 -28 -66 67
c-49 50 -65 73 -62 90 4 28 39 36 58 13 14 -16 100 -22 100 -6 0 78 -113 126
-198 84z m86 -278 c17 -16 32 -32 32 -36 0 -14 -71 -28 -95 -19 -46 17 -52 52
-17 93 17 19 10 22 80 -38z"/>
<path d="M150 3920 l0 -210 50 0 50 0 0 74 0 73 70 6 c112 9 158 58 147 153
-9 87 -59 114 -212 114 l-105 0 0 -210z m204 114 c41 -40 -1 -98 -66 -92 -32
3 -33 4 -36 56 l-3 52 45 0 c27 0 51 -6 60 -16z"/>
<path d="M1200 4091 c0 -31 -4 -41 -20 -46 -16 -5 -20 -15 -20 -46 0 -32 3
-39 20 -39 19 0 20 -7 20 -91 0 -50 5 -99 10 -110 16 -28 63 -49 115 -49 l45
0 0 40 c0 33 -3 40 -19 40 -46 0 -51 8 -51 91 l0 79 35 0 c34 0 35 1 35 40 0
25 -5 41 -12 42 -7 0 -17 2 -23 3 -5 2 -16 3 -22 4 -8 1 -13 16 -13 41 l0 40
-50 0 -50 0 0 -39z"/>
<path d="M605 4030 c-95 -48 -125 -181 -58 -260 36 -43 77 -61 138 -61 88 0
145 41 166 121 16 61 5 112 -34 157 -56 64 -137 81 -212 43z m125 -90 c25 -25
28 -101 4 -124 -41 -42 -97 -27 -113 30 -23 84 53 150 109 94z"/>
<path d="M943 4042 c-23 -3 -23 -5 -23 -168 l0 -164 50 0 50 0 0 85 c0 119 16
144 88 145 20 0 22 5 22 55 0 64 -8 68 -64 30 -45 -30 -44 -30 -48 -3 -3 22
-24 27 -75 20z"/>
<path d="M1725 4036 c-43 -19 -93 -79 -101 -123 -4 -21 -2 -57 5 -83 22 -80
76 -120 166 -120 31 0 68 6 83 14 121 63 119 246 -4 306 -46 23 -105 25 -149
6z m115 -96 c29 -29 28 -102 -2 -130 -12 -11 -27 -20 -34 -20 -31 0 -64 25
-75 57 -26 80 55 149 111 93z"/>
<path d="M2214 4041 c-2 -2 -4 -78 -4 -168 l0 -163 50 0 50 0 0 168 0 167 -46
0 c-25 0 -48 -2 -50 -4z"/>
<path d="M2474 4035 c-129 -57 -136 -246 -12 -311 34 -18 119 -18 161 0 92 39
124 165 65 252 -43 63 -142 91 -214 59z m114 -91 c17 -12 22 -25 22 -62 0 -53
-5 -64 -37 -81 -35 -18 -73 -3 -89 35 -35 83 36 156 104 108z"/>
<path d="M6988 3465 c-77 -51 -73 -14 -73 -720 l0 -630 -235 3 c-229 3 -659 2
-1460 -1 -427 -2 -424 -2 -451 -56 -10 -20 -13 -233 -14 -948 -1 -508 -4 -925
-6 -928 -3 -2 -76 -5 -163 -6 -171 -1 -180 -4 -158 -55 l12 -24 1764 0 c1599
0 1764 1 1770 16 3 9 6 24 6 35 0 17 -11 19 -162 21 l-163 3 -3 218 -2 217
1910 0 1910 0 21 21 c14 14 19 30 17 57 -4 43 25 39 -266 41 l-203 1 2 1325
c1 1284 0 1326 -18 1357 -11 18 -32 42 -49 53 -29 20 -47 20 -1989 22 l-1960
3 -37 -25z m3912 -1350 l0 -1205 -1625 0 -1625 0 0 245 c0 189 3 245 13 245 9
0 9 2 0 8 -9 6 -13 91 -15 330 -3 319 -3 322 -26 344 -22 23 -28 23 -295 28
l-272 5 -3 590 c-1 325 0 596 3 603 3 9 398 12 1925 12 l1920 0 0 -1205z
m-3350 -960 l0 -845 -1350 0 -1350 0 0 845 0 845 1350 0 1350 0 0 -845z m1770
-439 c0 -8 -12 -24 -26 -35 -26 -20 -39 -21 -311 -21 -280 0 -315 4 -335 34
-24 35 -15 36 332 36 288 0 340 -2 340 -14z m-2880 -549 c0 -33 -22 -37 -236
-37 -180 0 -215 2 -228 16 -9 8 -16 20 -16 25 0 5 99 9 240 9 190 0 240 -3
240 -13z"/>
<path d="M10618 3263 c-25 -4 -28 -8 -28 -44 l0 -40 108 3 107 3 0 38 0 38
-80 3 c-44 2 -92 1 -107 -1z m160 -37 c9 -10 -1 -13 -56 -20 -59 -7 -102 0
-102 18 0 11 146 13 158 2z"/>
<path d="M7220 3250 c0 -6 7 -10 15 -10 8 0 15 2 15 4 0 2 -7 6 -15 10 -8 3
-15 1 -15 -4z"/>
<path d="M7277 3243 c-4 -3 -2 -13 5 -20 9 -11 9 -17 -3 -24 -11 -7 -9 -9 9
-9 23 0 31 24 11 36 -8 4 -7 9 2 15 11 7 11 9 -2 9 -9 0 -19 -3 -22 -7z"/>
<path d="M7330 3224 c-13 -34 -13 -39 3 -25 8 6 17 8 21 3 12 -11 106 -12 106
0 0 7 4 7 13 0 10 -9 13 -5 12 16 0 17 -6 28 -17 30 -12 2 -18 -3 -18 -17 0
-30 -17 -34 -24 -6 -8 32 -20 32 -36 -2 l-13 -28 -11 28 c-12 34 -24 34 -36 1z"/>
<path d="M7510 3220 c0 -16 4 -30 9 -30 5 0 11 14 13 30 3 20 0 30 -9 30 -8 0
-13 -12 -13 -30z"/>
<path d="M7550 3220 c0 -27 3 -32 11 -20 8 11 12 12 16 3 9 -24 23 -13 23 17
0 30 -14 41 -23 18 -4 -10 -8 -9 -16 2 -8 12 -11 7 -11 -20z"/>
<path d="M7611 3224 c-1 -30 0 -30 49 -31 50 -1 50 -1 49 31 -1 23 -3 25 -6 9
-5 -28 -23 -30 -30 -3 -7 28 -21 25 -35 -7 l-11 -28 -7 30 -8 30 -1 -31z"/>
<path d="M7235 3211 c-3 -6 -15 -11 -26 -11 -11 0 -17 -4 -14 -10 10 -16 45
-12 52 5 7 19 -2 31 -12 16z"/>
<path d="M8022 2748 c3 -63 3 -63 35 -66 18 -2 41 2 53 8 17 9 19 18 16 55 -6
60 -10 65 -62 65 l-45 0 3 -62z m76 30 c-7 -20 -48 -23 -48 -4 0 11 9 16 26
16 16 0 24 -5 22 -12z m2 -51 c0 -20 -9 -25 -31 -20 -28 8 -24 33 6 33 14 0
25 -6 25 -13z"/>
<path d="M8250 2800 c0 -5 7 -10 15 -10 8 0 15 5 15 10 0 6 -7 10 -15 10 -8 0
-15 -4 -15 -10z"/>
<path d="M8300 2745 c0 -37 4 -65 10 -65 6 0 10 28 10 65 0 37 -4 65 -10 65
-6 0 -10 -28 -10 -65z"/>
<path d="M8410 2795 c0 -9 -9 -15 -23 -15 -30 0 -47 -18 -47 -50 0 -35 17 -50
57 -50 l33 0 0 65 c0 37 -4 65 -10 65 -5 0 -10 -7 -10 -15z m-6 -50 c7 -20 -3
-45 -19 -45 -18 0 -27 30 -14 46 15 18 25 18 33 -1z"/>
<path d="M8490 2805 c0 -2 9 -19 20 -37 11 -18 20 -46 20 -61 0 -40 23 -29 31
14 3 19 12 44 19 56 20 32 2 43 -21 13 -16 -21 -20 -23 -29 -10 -5 8 -10 18
-10 23 0 8 -30 10 -30 2z"/>
<path d="M8922 2749 c2 -39 8 -64 16 -67 7 -2 12 6 12 22 0 20 5 26 23 26 35
0 49 15 45 46 -3 27 -6 29 -51 32 l-48 3 3 -62z m71 27 c7 -18 -1 -26 -25 -26
-11 0 -18 7 -18 20 0 23 35 28 43 6z"/>
<path d="M9214 2792 c-10 -16 -9 -66 2 -101 9 -27 22 3 28 62 5 59 -7 76 -30
39z"/>
<path d="M9560 2800 c0 -5 5 -10 10 -10 6 0 10 5 10 10 0 6 -4 10 -10 10 -5 0
-10 -4 -10 -10z"/>
<path d="M9910 2745 c0 -37 4 -65 10 -65 6 0 10 28 10 65 0 37 -4 65 -10 65
-6 0 -10 -28 -10 -65z"/>
<path d="M8143 2764 c-3 -8 -1 -29 4 -47 8 -28 13 -32 46 -34 l37 -1 0 49 c0
27 -4 49 -10 49 -5 0 -10 -12 -10 -27 0 -16 -4 -34 -9 -42 -14 -22 -31 -3 -31
35 0 35 -16 46 -27 18z"/>
<path d="M8254 2766 c-9 -23 0 -79 14 -84 8 -2 12 11 12 47 0 48 -14 68 -26
37z"/>
<path d="M8598 2755 c-17 -38 3 -75 41 -75 46 0 68 52 35 84 -24 25 -63 20
-76 -9z m57 -25 c0 -27 -22 -39 -31 -16 -8 22 3 49 19 43 6 -2 12 -14 12 -27z"/>
<path d="M8706 2773 c-12 -12 -6 -71 8 -82 8 -7 27 -11 43 -9 26 3 28 6 28 46
0 49 -18 57 -25 11 -7 -46 -30 -50 -30 -5 0 34 -11 52 -24 39z"/>
<path d="M8810 2729 c0 -27 5 -49 10 -49 6 0 10 13 10 30 0 19 7 33 20 40 26
14 18 28 -15 28 -23 0 -25 -4 -25 -49z"/>
<path d="M9040 2729 c0 -27 5 -49 10 -49 6 0 10 14 10 30 0 18 6 33 15 36 24
10 17 32 -10 32 -23 0 -25 -4 -25 -49z"/>
<path d="M9112 2768 c-7 -7 -12 -24 -12 -38 0 -31 17 -50 45 -50 28 0 45 19
45 50 0 31 -17 50 -45 50 -12 0 -26 -5 -33 -12z m53 -38 c0 -28 -29 -40 -38
-15 -9 22 3 46 22 43 10 -2 16 -13 16 -28z"/>
<path d="M9272 2768 c-17 -17 -15 -63 2 -78 18 -14 58 -10 64 8 3 9 -3 11 -22
6 -16 -4 -26 -2 -26 4 0 6 12 12 27 14 32 4 39 20 18 42 -19 19 -46 21 -63 4z
m48 -18 c0 -5 -7 -10 -15 -10 -8 0 -15 5 -15 10 0 6 7 10 15 10 8 0 15 -4 15
-10z"/>
<path d="M9372 2771 c-21 -13 -10 -46 16 -49 12 -2 22 -8 22 -14 0 -6 -10 -8
-26 -4 -19 5 -25 3 -22 -6 3 -7 20 -13 39 -13 30 0 34 3 34 25 0 18 -6 26 -22
28 -13 2 -23 8 -23 13 0 5 11 7 25 3 27 -7 35 10 9 20 -21 8 -36 7 -52 -3z"/>
<path d="M9467 2774 c-16 -16 -6 -45 18 -54 36 -14 31 -23 -7 -14 -29 6 -31 5
-19 -10 15 -18 66 -22 76 -6 11 18 -6 50 -25 50 -10 0 -22 5 -26 11 -5 9 1 10
20 5 21 -5 27 -3 24 6 -5 14 -50 23 -61 12z"/>
<path d="M9557 2773 c-9 -17 -1 -87 11 -91 8 -2 12 10 12 42 0 41 -12 67 -23
49z"/>
<path d="M9613 2768 c-29 -38 -12 -88 31 -88 29 0 46 18 46 50 0 14 -5 31 -12
38 -16 16 -53 15 -65 0z m51 -23 c8 -21 -3 -45 -20 -45 -8 0 -17 7 -20 15 -8
21 2 45 20 45 7 0 16 -7 20 -15z"/>
<path d="M9710 2729 c0 -57 17 -66 22 -11 2 25 8 37 18 37 10 0 16 -12 18 -37
5 -56 24 -46 20 10 -3 47 -3 47 -40 49 l-38 1 0 -49z"/>
<path d="M9823 2768 c-5 -7 -8 -29 -8 -48 0 -33 2 -35 38 -37 l37 -1 0 43 c0
30 -5 45 -16 49 -24 9 -41 7 -51 -6z m37 -18 c0 -5 -7 -10 -16 -10 -8 0 -12 5
-9 10 3 6 10 10 16 10 5 0 9 -4 9 -10z m-4 -47 c-10 -10 -19 5 -10 18 6 11 8
11 12 0 2 -7 1 -15 -2 -18z"/>
<path d="M8356 2622 c-9 -14 -5 -112 5 -118 5 -3 9 6 9 20 0 14 4 28 10 31 14
8 50 -13 50 -30 0 -7 4 -16 9 -20 13 -7 11 96 -2 113 -11 13 -73 17 -81 4z
m72 -29 c-2 -12 -12 -18 -28 -18 -16 0 -26 6 -28 18 -3 13 3 17 28 17 25 0 31
-4 28 -17z"/>
<path d="M9210 2620 c0 -5 5 -10 10 -10 6 0 10 5 10 10 0 6 -4 10 -10 10 -5 0
-10 -4 -10 -10z"/>
<path d="M9318 2624 c-10 -17 -8 -114 2 -114 5 0 10 14 10 30 0 19 6 33 16 37
19 7 36 -15 30 -38 -2 -9 0 -23 5 -30 6 -9 9 3 9 34 0 44 -2 47 -25 47 -17 0
-28 7 -34 22 -4 12 -10 17 -13 12z"/>
<path d="M9485 2593 c-9 -21 -19 -51 -21 -68 -5 -27 -4 -28 9 -12 8 9 24 17
37 17 13 0 29 -8 36 -17 11 -15 13 -15 14 -3 0 24 -37 114 -48 118 -6 2 -18
-14 -27 -35z m35 -23 c0 -11 -7 -20 -15 -20 -17 0 -18 2 -9 24 9 23 24 20 24
-4z"/>
<path d="M9589 2588 c0 -24 -2 -51 -4 -60 -2 -10 1 -20 6 -24 5 -3 9 24 9 60
0 72 -10 92 -11 24z"/>
<path d="M9263 2608 c-13 -16 -2 -100 12 -105 6 -2 10 18 9 52 -1 61 -6 72
-21 53z"/>
<path d="M8500 2592 c-20 -7 -30 -22 -30 -50 0 -28 44 -52 62 -34 9 9 6 12
-14 12 -23 0 -26 4 -24 28 2 15 10 28 20 30 19 4 21 -9 5 -25 -9 -9 -7 -10 10
-6 11 3 21 11 21 19 0 17 -30 33 -50 26z"/>
<path d="M8585 2587 c-22 -17 -13 -34 23 -48 21 -8 23 -12 12 -19 -9 -6 -19
-5 -24 0 -15 15 -26 12 -20 -5 8 -20 48 -19 65 1 11 14 10 18 -6 30 -10 8 -25
14 -32 14 -7 0 -13 5 -13 11 0 7 10 9 25 7 28 -6 34 6 9 16 -20 8 -17 8 -39
-7z"/>
<path d="M8803 2592 c-13 -2 -23 -12 -25 -25 -5 -32 3 -68 13 -61 5 3 7 10 3
15 -10 17 5 59 21 59 10 0 15 -11 15 -35 0 -44 18 -46 22 -2 2 20 8 32 18 32
10 0 16 -12 18 -32 2 -18 7 -33 13 -33 13 0 11 67 -2 75 -12 8 -63 11 -96 7z"/>
<path d="M8670 2551 c0 -43 11 -52 53 -44 24 5 27 10 27 44 0 47 -17 52 -22 7
-2 -22 -9 -34 -20 -36 -15 -3 -18 4 -18 32 0 20 -4 36 -10 36 -5 0 -10 -18
-10 -39z"/>
<path d="M8928 2565 c-9 -21 -8 -28 7 -45 19 -21 50 -26 60 -10 4 6 -5 10 -19
10 -27 0 -35 15 -13 23 10 4 10 6 0 6 -7 1 -13 8 -13 17 0 9 7 14 18 12 9 -2
17 -9 17 -16 0 -6 5 -12 10 -12 9 0 10 5 7 30 -1 6 -16 10 -32 10 -23 0 -33
-6 -42 -25z"/>
<path d="M9070 2584 c0 -20 24 -84 32 -84 5 0 11 13 14 30 7 32 24 32 24 0 0
-34 20 -32 35 4 18 41 19 56 5 56 -5 0 -10 -9 -10 -19 0 -30 -17 -34 -24 -6
-4 14 -11 25 -16 25 -5 0 -12 -11 -16 -25 -7 -28 -24 -24 -24 6 0 10 -4 19
-10 19 -5 0 -10 -3 -10 -6z"/>
<path d="M9210 2551 c0 -22 5 -43 10 -46 6 -4 10 12 10 39 0 25 -4 46 -10 46
-5 0 -10 -18 -10 -39z"/>
<path d="M7972 2111 c-9 -5 -12 -29 -10 -77 l3 -69 340 0 340 0 0 75 0 75
-330 2 c-182 1 -336 -2 -343 -6z m118 -72 c0 -11 -4 -17 -10 -14 -5 3 -10 13
-10 21 0 8 5 14 10 14 6 0 10 -9 10 -21z m123 12 c4 -1 7 -8 7 -16 0 -11 -11
-15 -40 -15 -42 0 -43 1 -35 22 5 12 21 14 68 9z m123 -1 c50 0 64 -3 64 -15
0 -12 -16 -15 -80 -15 -75 0 -80 1 -80 21 0 15 4 19 16 15 9 -3 45 -6 80 -6z
m114 -11 c0 7 20 11 50 11 54 0 64 -10 26 -28 -32 -14 -106 -4 -106 16 0 12 3
12 15 2 10 -9 15 -9 15 -1z"/>
<path d="M7746 1605 c4 -8 8 -15 10 -15 2 0 4 7 4 15 0 8 -4 15 -10 15 -5 0
-7 -7 -4 -15z"/>
<path d="M8921 1544 c0 -11 3 -14 6 -6 3 7 2 16 -1 19 -3 4 -6 -2 -5 -13z"/>
<path d="M7741 1534 c0 -11 3 -14 6 -6 3 7 2 16 -1 19 -3 4 -6 -2 -5 -13z"/>
<path d="M7160 1776 c0 -42 1 -42 160 -40 l125 1 3 36 3 37 -145 0 -146 0 0
-34z m65 -4 c0 -18 -20 -15 -23 4 -3 10 1 15 10 12 7 -3 13 -10 13 -16z m179
-3 c-3 -5 -10 -7 -15 -3 -5 3 -7 10 -3 15 3 5 10 7 15 3 5 -3 7 -10 3 -15z
m-64 3 c0 -5 -20 -10 -45 -10 -25 -1 -45 2 -45 8 0 5 20 10 45 10 25 0 45 -4
45 -8z"/>
<path d="M6716 1546 c7 -17 59 -23 69 -7 3 6 -6 8 -21 5 -14 -3 -32 1 -40 7
-12 10 -13 9 -8 -5z"/>
<path d="M6880 1548 c0 -8 15 -14 35 -15 21 -2 35 2 35 8 0 6 -9 9 -20 6 -11
-3 -23 -1 -26 4 -8 13 -24 11 -24 -3z"/>
<path d="M6830 1540 c0 -5 5 -10 10 -10 6 0 10 5 10 10 0 6 -4 10 -10 10 -5 0
-10 -4 -10 -10z"/>
<path d="M6960 1542 c0 -5 7 -9 15 -9 8 0 15 4 15 9 0 4 -7 8 -15 8 -8 0 -15
-4 -15 -8z"/>
<path d="M7000 1534 c0 -8 5 -12 10 -9 6 3 10 10 10 16 0 5 -4 9 -10 9 -5 0
-10 -7 -10 -16z"/>
<path d="M7090 1540 c0 -5 7 -10 15 -10 8 0 15 5 15 10 0 6 -7 10 -15 10 -8 0
-15 -4 -15 -10z"/>
<path d="M7130 1542 c0 -5 7 -9 15 -9 8 0 15 4 15 9 0 4 -7 8 -15 8 -8 0 -15
-4 -15 -8z"/>
<path d="M4890 425 l0 -35 198 2 197 3 0 30 -1 30 -197 3 -197 2 0 -35z m255
12 c89 -2 110 -5 110 -17 0 -9 -9 -14 -22 -13 -13 0 -77 1 -143 2 -112 1 -120
2 -120 20 0 17 5 19 33 15 17 -3 82 -6 142 -7z m-195 -12 c0 -8 -7 -15 -15
-15 -16 0 -20 12 -8 23 11 12 23 8 23 -8z"/>
<path d="M3629 3321 c-20 -16 -22 -23 -14 -47 21 -57 115 -49 115 11 0 51 -57
72 -101 36z"/>
<path d="M3805 3302 c-3 -3 -5 -104 -5 -224 l0 -218 50 0 50 0 -2 223 -3 222
-42 1 c-23 1 -45 -1 -48 -4z"/>
<path d="M4223 3303 c-9 -3 -13 -28 -13 -73 l0 -68 -37 19 c-49 25 -86 24
-134 -3 -71 -40 -99 -148 -60 -233 27 -59 53 -78 117 -83 46 -4 61 -1 85 17
29 21 29 21 29 1 0 -18 6 -20 53 -20 l52 0 0 213 c0 116 -3 217 -7 223 -7 11
-63 16 -85 7z m-36 -215 c27 -25 31 -82 8 -115 -49 -70 -154 -3 -125 80 20 58
75 74 117 35z"/>
<path d="M150 3070 l0 -210 50 0 49 0 3 77 c2 46 8 78 15 80 6 2 31 -32 55
-76 l43 -81 58 0 58 0 -28 48 c-15 26 -35 61 -45 77 -24 39 -24 40 16 63 48
28 66 86 45 145 -11 34 -23 47 -59 65 -38 19 -60 22 -152 22 l-108 0 0 -210z
m201 120 c13 -7 19 -21 19 -45 0 -41 -20 -55 -79 -55 l-41 0 0 48 c0 27 3 52
7 55 10 11 72 8 94 -3z"/>
<path d="M2810 3070 l0 -210 120 0 c145 0 191 16 210 75 15 45 -1 99 -36 122
l-25 16 25 26 c34 36 41 71 22 115 -22 53 -60 66 -201 66 l-115 0 0 -210z
m208 118 c17 -17 15 -65 -4 -72 -9 -3 -36 -6 -60 -6 l-44 0 0 45 0 45 48 0
c26 0 53 -5 60 -12z m-4 -158 c20 -7 26 -17 26 -38 0 -40 -17 -52 -77 -52
l-53 0 0 43 c0 24 3 47 7 50 10 10 68 8 97 -3z"/>
<path d="M623 3180 c-101 -45 -124 -187 -45 -271 42 -45 100 -61 167 -47 44
10 105 62 105 90 0 15 -8 18 -49 18 -31 0 -53 -5 -61 -15 -15 -18 -71 -20 -88
-3 -7 7 -12 20 -12 30 0 15 13 18 113 20 l112 3 -3 44 c-4 60 -36 109 -86 132
-52 24 -100 24 -153 -1z m115 -76 c41 -29 28 -44 -38 -44 -46 0 -60 3 -60 14
0 17 38 46 60 46 9 0 26 -7 38 -16z"/>
<path d="M985 3186 c-46 -20 -69 -52 -68 -92 1 -49 25 -71 102 -94 36 -12 68
-26 72 -32 23 -37 -48 -54 -78 -18 -24 27 -103 29 -103 2 0 -50 68 -95 145
-95 85 0 135 38 135 101 0 45 -29 72 -106 97 -53 17 -69 27 -69 41 0 25 62 33
71 10 4 -12 20 -16 55 -16 27 0 49 4 49 9 0 4 -10 23 -23 42 -35 53 -118 73
-182 45z"/>
<path d="M1815 3180 c-47 -24 -45 -24 -45 -5 0 11 -12 15 -50 15 l-50 0 0
-165 0 -165 49 0 49 0 4 110 c3 119 13 139 69 140 48 0 59 -25 59 -143 l0
-107 49 0 49 0 4 104 c4 116 18 146 67 146 56 0 71 -35 71 -161 l0 -89 50 0
50 0 0 112 c0 140 -18 187 -82 213 -52 20 -96 13 -138 -22 l-31 -26 -22 21
c-24 23 -68 42 -96 42 -9 0 -34 -9 -56 -20z"/>
<path d="M2380 3178 c-33 -17 -51 -35 -67 -68 -71 -139 39 -280 192 -248 44
10 105 62 105 90 0 15 -8 18 -49 18 -31 0 -53 -5 -61 -15 -15 -18 -74 -20 -88
-2 -31 37 -21 42 98 47 l115 5 -3 44 c-4 60 -36 109 -86 132 -55 25 -102 24
-156 -3z m118 -74 c41 -29 28 -44 -38 -44 -46 0 -60 3 -60 14 0 17 38 46 60
46 9 0 26 -7 38 -16z"/>
<path d="M3638 3192 c-16 -3 -18 -19 -18 -168 l0 -164 50 0 50 0 0 164 0 164
-32 4 c-18 2 -41 2 -50 0z"/>
<path d="M4464 3181 c-53 -24 -86 -71 -92 -131 -12 -124 82 -214 204 -195 47
7 114 63 114 95 0 17 -7 20 -49 20 -31 0 -53 -5 -61 -15 -25 -30 -100 -9 -100
28 0 14 17 17 113 19 l112 3 -3 44 c-8 118 -126 183 -238 132z m114 -77 c41
-29 28 -44 -38 -44 -46 0 -60 3 -60 14 0 17 38 46 60 46 9 0 26 -7 38 -16z"/>
<path d="M4783 3193 c-23 -4 -23 -6 -23 -169 l0 -164 49 0 49 0 4 96 c3 86 5
98 27 115 13 10 36 19 52 19 28 0 29 2 29 49 0 28 -4 52 -9 56 -11 6 -81 -25
-81 -37 0 -4 -4 -8 -10 -8 -5 0 -10 11 -10 25 0 26 -16 30 -77 18z"/>
<path d="M1260 3074 c0 -131 13 -175 61 -199 36 -19 110 -19 135 0 25 19 34
19 34 0 0 -11 12 -15 50 -15 l50 0 0 165 0 165 -50 0 -50 0 0 -105 c0 -92 -3
-108 -20 -125 -11 -11 -31 -20 -45 -20 -14 0 -34 9 -45 20 -17 17 -20 33 -20
125 l0 105 -50 0 -50 0 0 -116z"/>
<path d="M3210 3074 c0 -131 13 -175 61 -199 36 -19 110 -19 135 0 25 19 34
19 34 0 0 -11 12 -15 50 -15 l50 0 0 165 0 165 -50 0 -50 0 0 -105 c0 -92 -3
-108 -20 -125 -11 -11 -31 -20 -45 -20 -14 0 -34 9 -45 20 -17 17 -20 33 -20
125 l0 105 -50 0 -50 0 0 -116z"/>
<path d="M5277 2925 c3 -8 9 -12 14 -9 12 7 11 11 -5 17 -10 4 -13 1 -9 -8z"/>
<path d="M5290 2875 c0 -8 5 -15 10 -15 6 0 10 7 10 15 0 8 -4 15 -10 15 -5 0
-10 -7 -10 -15z"/>
<path d="M11380 2663 c1 -14 28 -44 32 -36 3 4 -3 16 -14 26 -10 9 -18 14 -18
10z"/>
<path d="M11431 2614 c0 -11 3 -14 6 -6 3 7 2 16 -1 19 -3 4 -6 -2 -5 -13z"/>
<path d="M11506 2605 c4 -8 8 -15 10 -15 2 0 4 7 4 15 0 8 -4 15 -10 15 -5 0
-7 -7 -4 -15z"/>
<path d="M250 2513 c0 -29 5 -53 10 -53 6 0 10 11 10 25 0 16 6 25 15 25 9 0
15 -9 15 -25 0 -14 4 -25 9 -25 8 0 9 19 2 63 0 4 -8 7 -17 7 -9 0 -23 8 -30
18 -12 15 -13 10 -14 -35z"/>
<path d="M1184 2545 c-4 -8 -12 -15 -19 -15 -20 0 -37 -27 -30 -50 4 -14 15
-20 36 -20 28 0 29 1 29 50 0 50 -6 63 -16 35z m-4 -56 c0 -24 -23 -21 -28 4
-2 10 3 17 12 17 10 0 16 -9 16 -21z"/>
<path d="M1552 2543 c-11 -21 -4 -85 9 -78 4 3 6 12 3 20 -3 8 -2 20 2 27 13
20 15 48 4 48 -5 0 -13 -8 -18 -17z"/>
<path d="M1680 2510 c0 -27 5 -50 10 -50 6 0 10 23 10 50 0 28 -4 50 -10 50
-5 0 -10 -22 -10 -50z"/>
<path d="M2810 2511 c0 -29 4 -50 9 -47 8 5 4 86 -5 95 -2 2 -4 -19 -4 -48z"/>
<path d="M2890 2545 c0 -8 -6 -15 -14 -15 -21 0 -38 -27 -31 -50 4 -14 15 -20
36 -20 28 0 29 1 29 50 0 28 -4 50 -10 50 -5 0 -10 -7 -10 -15z m0 -56 c0 -20
-15 -26 -25 -9 -9 15 3 43 15 35 5 -3 10 -15 10 -26z"/>
<path d="M3917 2553 c-11 -10 -8 -93 3 -93 6 0 10 23 10 50 0 51 -1 55 -13 43z"/>
<path d="M4183 2547 c-4 -8 -16 -17 -26 -20 -13 -5 -17 -15 -15 -34 2 -22 9
-29 31 -31 26 -3 27 -2 27 47 0 53 -3 60 -17 38z m-3 -57 c0 -11 -4 -20 -10
-20 -5 0 -10 9 -10 20 0 11 5 20 10 20 6 0 10 -9 10 -20z"/>
<path d="M4450 2509 l0 -50 33 3 c28 3 32 6 32 33 0 23 -5 31 -22 33 -13 2
-23 10 -23 18 0 8 -4 14 -10 14 -5 0 -10 -23 -10 -51z m50 -14 c0 -8 -7 -15
-15 -15 -8 0 -15 7 -15 15 0 8 7 15 15 15 8 0 15 -7 15 -15z"/>
<path d="M11460 2533 c0 -16 9 -41 20 -58 24 -36 26 -26 4 16 -8 17 -13 33
-10 36 9 9 37 -57 41 -98 2 -23 19 -73 38 -112 19 -40 40 -89 46 -109 7 -21
14 -38 16 -38 2 0 4 75 5 166 l1 166 -56 -4 c-49 -3 -56 -1 -51 15 2 9 0 15
-4 12 -5 -3 -14 4 -20 15 -15 28 -30 25 -30 -7z"/>
<path d="M173 2539 c11 -6 17 -22 17 -44 0 -19 5 -35 10 -35 6 0 10 18 10 39
0 22 5 42 13 44 6 3 -6 6 -28 6 -32 0 -36 -2 -22 -10z"/>
<path d="M465 2516 c-18 -41 -19 -56 -5 -56 6 0 10 5 10 10 0 14 38 12 43 -2
2 -7 7 -10 11 -7 9 8 -18 82 -32 87 -7 2 -19 -12 -27 -32z m35 -7 c0 -5 -4 -9
-10 -9 -5 0 -10 7 -10 16 0 8 5 12 10 9 6 -3 10 -10 10 -16z"/>
<path d="M550 2505 c0 -25 5 -45 10 -45 6 0 10 20 10 45 0 25 -4 45 -10 45 -5
0 -10 -20 -10 -45z"/>
<path d="M639 2543 c-5 -40 -4 -83 3 -83 4 0 8 6 8 13 0 7 10 17 23 22 32 15
29 49 -5 53 -16 2 -28 0 -29 -5z m41 -24 c0 -5 -7 -9 -15 -9 -15 0 -20 12 -9
23 8 8 24 -1 24 -14z"/>
<path d="M1260 2506 c0 -25 5 -46 10 -46 6 0 10 6 10 14 0 8 9 18 21 21 31 10
21 49 -13 53 -27 3 -28 2 -28 -42z m40 13 c0 -5 -4 -9 -10 -9 -5 0 -10 7 -10
16 0 8 5 12 10 9 6 -3 10 -10 10 -16z"/>
<path d="M1887 2543 c-2 -5 -3 -24 -3 -43 1 -33 3 -35 36 -38 31 -3 35 0 36
23 2 21 -1 24 -12 14 -15 -12 -17 -7 -14 29 1 16 -4 22 -19 22 -11 0 -22 -3
-24 -7z m33 -7 c0 -3 -4 -8 -10 -11 -5 -3 -10 -1 -10 4 0 6 5 11 10 11 6 0 10
-2 10 -4z m0 -56 c0 -5 -2 -10 -4 -10 -3 0 -8 5 -11 10 -3 6 -1 10 4 10 6 0
11 -4 11 -10z"/>
<path d="M2020 2506 c0 -25 5 -46 10 -46 6 0 10 7 10 15 0 8 4 15 9 15 5 0 11
-7 15 -15 3 -8 11 -15 17 -15 8 0 8 4 1 13 -6 7 -10 26 -9 43 2 25 -2 29 -25
32 -27 3 -28 2 -28 -42z m40 13 c0 -5 -4 -9 -10 -9 -5 0 -10 7 -10 16 0 8 5
12 10 9 6 -3 10 -10 10 -16z"/>
<path d="M2590 2505 c0 -43 1 -45 29 -45 36 0 39 5 34 53 -5 33 -8 37 -34 37
-28 0 -29 -2 -29 -45z m40 25 c0 -5 -4 -10 -10 -10 -5 0 -10 5 -10 10 0 6 5
10 10 10 6 0 10 -4 10 -10z m5 -40 c3 -5 -1 -10 -9 -10 -9 0 -16 5 -16 10 0 6
4 10 9 10 6 0 13 -4 16 -10z"/>
<path d="M1486 2531 c-10 -16 6 -71 20 -71 11 0 12 4 2 19 -9 15 -9 23 0 34 7
7 9 17 5 20 -9 10 -21 9 -27 -2z"/>
<path d="M340 2509 c-14 -26 3 -50 34 -48 17 1 17 2 4 6 -25 6 -22 23 3 23 15
0 19 4 15 16 -3 9 -6 18 -6 20 0 14 -41 0 -50 -17z"/>
<path d="M719 2514 c-15 -19 -2 -47 26 -52 25 -5 38 13 31 42 -7 30 -36 35
-57 10z m41 -25 c0 -24 -23 -21 -28 4 -2 10 3 17 12 17 10 0 16 -9 16 -21z"/>
<path d="M800 2509 c0 -24 16 -57 23 -49 2 3 9 14 14 24 10 19 11 18 17 -2 12
-37 28 -29 40 21 8 32 -8 37 -19 5 l-8 -23 -4 23 c-5 26 -21 29 -30 6 -6 -15
-8 -15 -20 2 -12 17 -13 16 -13 -7z"/>
<path d="M920 2509 c-14 -25 3 -49 34 -48 19 0 19 1 -4 12 l-25 11 28 4 c21 2
27 8 23 19 -3 8 -6 17 -6 19 0 14 -41 0 -50 -17z m35 1 c3 -5 1 -10 -4 -10 -6
0 -11 5 -11 10 0 6 2 10 4 10 3 0 8 -4 11 -10z"/>
<path d="M1001 2490 c0 -33 1 -34 10 -11 5 14 14 31 20 37 8 10 5 12 -10 11
-17 -1 -21 -8 -20 -37z"/>
<path d="M1060 2511 c-15 -29 -2 -51 29 -50 l26 0 -25 12 -25 11 28 4 c29 4
33 12 15 30 -18 18 -36 15 -48 -7z m35 -1 c3 -5 1 -10 -4 -10 -6 0 -11 5 -11
10 0 6 2 10 4 10 3 0 8 -4 11 -10z"/>
<path d="M1344 2516 c-11 -29 0 -51 26 -51 21 0 25 5 25 30 0 24 -5 31 -23 33
-13 2 -24 -3 -28 -12z m40 -14 c2 -4 0 -14 -5 -22 -8 -13 -10 -13 -18 0 -10
15 -6 30 9 30 5 0 11 -4 14 -8z"/>
<path d="M1420 2494 c0 -19 5 -34 10 -34 6 0 10 8 10 17 0 9 7 24 15 33 15 16
14 18 -10 18 -22 0 -25 -5 -25 -34z"/>
<path d="M1599 2514 c-15 -19 -2 -47 26 -52 25 -5 38 13 31 42 -7 30 -36 35
-57 10z m41 -25 c0 -24 -23 -21 -28 4 -2 10 3 17 12 17 10 0 16 -9 16 -21z"/>
<path d="M1720 2495 c0 -19 5 -35 10 -35 6 0 10 16 10 35 0 19 -4 35 -10 35
-5 0 -10 -16 -10 -35z"/>
<path d="M1764 2516 c-11 -29 0 -51 26 -51 21 0 25 5 25 30 0 24 -5 31 -23 33
-13 2 -24 -3 -28 -12z m39 -33 c-3 -7 -9 -13 -14 -13 -11 0 -12 34 -2 43 9 10
22 -13 16 -30z"/>
<path d="M2111 2516 c-21 -25 -9 -51 24 -53 l30 -3 -25 12 -25 11 23 5 c15 2
22 9 20 20 -4 22 -32 27 -47 8z m29 -6 c0 -5 -5 -10 -11 -10 -5 0 -7 5 -4 10
3 6 8 10 11 10 2 0 4 -4 4 -10z"/>
<path d="M2184 2518 c-4 -6 0 -16 9 -23 22 -16 21 -22 0 -28 -11 -3 -7 -5 10
-6 31 -1 36 19 11 40 -14 12 -14 14 3 20 16 7 16 8 -4 8 -12 1 -25 -4 -29 -11z"/>
<path d="M2252 2498 c3 -29 7 -33 34 -36 29 -3 32 0 32 25 0 41 -12 53 -18 19
-6 -36 -24 -36 -28 -1 -5 37 -24 30 -20 -7z"/>
<path d="M2340 2495 c0 -19 5 -35 10 -35 6 0 10 11 10 24 0 39 19 41 27 4 6
-31 7 -31 13 -9 8 34 30 39 30 7 0 -14 5 -26 11 -26 6 0 9 14 7 33 -3 31 -4
32 -55 35 l-53 2 0 -35z"/>
<path d="M2474 2516 c-11 -28 0 -51 26 -53 15 -1 18 0 8 3 -25 7 -22 24 3 24
14 0 19 5 17 18 -4 22 -46 29 -54 8z m36 -6 c0 -5 -4 -10 -10 -10 -5 0 -10 5
-10 10 0 6 5 10 10 10 6 0 10 -4 10 -10z"/>
<path d="M2681 2498 c-1 -36 1 -38 29 -38 28 0 30 3 30 35 0 19 -4 35 -10 35
-5 0 -10 -13 -10 -30 0 -40 -17 -38 -29 3 l-9 32 -1 -37z"/>
<path d="M2767 2523 c-11 -10 -8 -63 3 -63 6 0 10 16 10 35 0 36 -2 40 -13 28z"/>
<path d="M2934 2516 c-11 -28 0 -51 26 -53 15 -1 18 0 8 3 -25 7 -22 24 3 24
14 0 19 5 17 18 -4 22 -46 29 -54 8z m36 -6 c0 -5 -4 -10 -10 -10 -5 0 -10 5
-10 10 0 6 5 10 10 10 6 0 10 -4 10 -10z"/>
<path d="M3010 2493 c0 -18 5 -33 10 -33 6 0 10 11 10 25 0 14 5 25 10 25 6 0
10 4 10 9 0 6 -9 9 -20 8 -16 -1 -20 -8 -20 -34z"/>
<path d="M3110 2494 c0 -19 4 -33 8 -30 8 5 4 66 -4 66 -2 0 -4 -16 -4 -36z"/>
<path d="M3145 2521 c-3 -5 2 -16 10 -24 19 -20 19 -25 -2 -30 -11 -3 -7 -5
10 -6 20 -1 27 4 27 18 0 11 -6 22 -12 24 -10 4 -9 8 2 16 12 9 11 11 -7 11
-12 0 -24 -4 -28 -9z"/>
<path d="M3274 2517 c18 -13 18 -14 -3 -20 -34 -8 -27 -37 10 -37 28 0 30 2
27 33 -2 26 -8 33 -28 35 -24 3 -24 3 -6 -11z m16 -37 c0 -5 -4 -10 -10 -10
-5 0 -10 5 -10 10 0 6 5 10 10 10 6 0 10 -4 10 -10z"/>
<path d="M3370 2478 c1 -44 3 -50 13 -37 7 8 20 18 30 22 13 5 17 15 15 34 -2
22 -9 29 -30 31 -27 3 -28 2 -28 -50z m40 11 c0 -10 -4 -19 -10 -19 -5 0 -10
12 -10 26 0 14 4 23 10 19 6 -3 10 -15 10 -26z"/>
<path d="M3454 2516 c-11 -28 0 -51 26 -53 15 -1 18 0 8 3 -25 7 -22 24 3 24
14 0 19 5 17 18 -4 22 -46 29 -54 8z m36 -6 c0 -5 -4 -10 -10 -10 -5 0 -10 5
-10 10 0 6 5 10 10 10 6 0 10 -4 10 -10z"/>
<path d="M3530 2493 c0 -18 5 -33 10 -33 6 0 10 11 10 25 0 14 5 25 10 25 6 0
10 4 10 9 0 6 -9 9 -20 8 -16 -1 -20 -8 -20 -34z"/>
<path d="M3594 2518 c-4 -6 0 -16 9 -23 22 -16 21 -22 0 -28 -11 -3 -7 -5 10
-6 31 -1 36 19 11 40 -14 12 -14 14 3 20 16 7 16 8 -4 8 -12 1 -25 -4 -29 -11z"/>
<path d="M3664 2516 c-11 -29 0 -51 26 -51 21 0 25 5 25 30 0 24 -5 31 -23 33
-13 2 -24 -3 -28 -12z m40 -14 c2 -4 1 -14 -4 -22 -7 -11 -12 -12 -21 -3 -6 6
-8 16 -5 22 8 13 23 14 30 3z"/>
<path d="M3740 2496 c0 -20 5 -36 10 -36 6 0 10 11 10 25 0 16 6 25 15 25 9 0
15 -9 15 -25 0 -14 5 -25 11 -25 6 0 9 14 7 33 -3 28 -7 32 -35 35 -32 3 -33
2 -33 -32z"/>
<path d="M3855 2517 c17 -13 17 -14 -4 -20 -33 -8 -27 -37 9 -37 23 0 30 5 30
19 0 33 -11 51 -33 51 -20 0 -20 -1 -2 -13z m15 -37 c0 -5 -4 -10 -10 -10 -5
0 -10 5 -10 10 0 6 5 10 10 10 6 0 10 -4 10 -10z"/>
<path d="M3957 2523 c-11 -10 -8 -63 3 -63 6 0 10 16 10 35 0 36 -2 40 -13 28z"/>
<path d="M4000 2520 c12 -8 13 -13 3 -30 -18 -28 -17 -30 15 -30 21 0 24 2 12
10 -12 8 -13 13 -2 30 17 28 16 30 -15 30 -22 0 -25 -2 -13 -10z"/>
<path d="M4064 2516 c-12 -30 0 -51 31 -53 20 -1 23 0 8 4 -29 6 -30 23 -2 23
14 0 19 5 17 18 -4 22 -46 29 -54 8z m36 -6 c0 -5 -4 -10 -10 -10 -5 0 -10 5
-10 10 0 6 5 10 10 10 6 0 10 -4 10 -10z"/>
<path d="M4257 2524 c-8 -8 13 -64 24 -64 5 0 13 10 18 22 l8 23 7 -23 c12
-37 28 -29 40 21 8 32 -8 37 -19 5 l-8 -23 -4 23 c-5 26 -21 29 -30 6 -6 -16
-7 -16 -18 -1 -7 9 -15 14 -18 11z"/>
<path d="M4374 2516 c-12 -30 0 -51 31 -53 l30 -3 -25 12 -25 11 23 5 c15 2
22 9 20 20 -4 22 -46 28 -54 8z m36 -6 c0 -5 -5 -10 -11 -10 -5 0 -7 5 -4 10
3 6 8 10 11 10 2 0 4 -4 4 -10z"/>
<path d="M427 2363 c-11 -10 -8 -93 3 -93 6 0 10 23 10 50 0 51 -1 55 -13 43z"/>
<path d="M1020 2320 c0 -51 16 -70 22 -25 4 35 22 36 26 3 4 -31 22 -38 22 -9
0 33 -11 51 -31 51 -10 0 -19 7 -19 15 0 8 -4 15 -10 15 -5 0 -10 -22 -10 -50z"/>
<path d="M1288 2364 c-11 -10 -10 -94 1 -94 5 0 11 14 15 31 7 35 26 30 26 -7
0 -13 5 -24 11 -24 6 0 9 14 7 33 -2 24 -8 33 -25 35 -12 2 -23 10 -25 19 -2
8 -6 11 -10 7z"/>
<path d="M1450 2320 c0 -27 5 -50 10 -50 6 0 10 23 10 50 0 28 -4 50 -10 50
-5 0 -10 -22 -10 -50z"/>
<path d="M1940 2358 c0 -10 -9 -18 -22 -20 -18 -2 -23 -10 -23 -33 0 -27 4
-30 33 -33 31 -3 32 -2 32 35 0 21 -5 45 -10 53 -8 13 -10 13 -10 -2z m-2 -55
c-4 -22 -22 -20 -26 1 -2 10 3 16 13 16 10 0 15 -7 13 -17z"/>
<path d="M2520 2355 c0 -8 -9 -15 -19 -15 -22 0 -35 -28 -25 -54 4 -10 17 -16
35 -16 28 0 29 2 29 50 0 28 -4 50 -10 50 -5 0 -10 -7 -10 -15z m0 -56 c0 -24
-23 -21 -28 4 -2 10 3 17 12 17 10 0 16 -9 16 -21z"/>
<path d="M2720 2320 c0 -48 1 -50 29 -50 18 0 31 6 35 16 10 26 -3 54 -25 54
-10 0 -19 7 -19 15 0 8 -4 15 -10 15 -5 0 -10 -22 -10 -50z m45 -18 c0 -18
-20 -15 -23 4 -3 10 1 15 10 12 7 -3 13 -10 13 -16z"/>
<path d="M3072 2320 c-1 -38 1 -50 8 -40 7 12 12 12 22 2 19 -19 30 -14 18 9
-9 15 -8 24 1 35 7 9 8 14 1 14 -6 0 -14 -4 -17 -10 -11 -18 -24 -10 -28 18
-2 15 -5 2 -5 -28z"/>
<path d="M3611 2352 c-5 -10 -6 -32 -1 -52 7 -29 8 -31 9 -9 1 14 6 30 13 37
7 7 8 12 4 12 -5 0 -3 7 4 15 10 12 10 15 -3 15 -9 0 -21 -8 -26 -18z"/>
<path d="M3923 2357 c-4 -8 -16 -17 -26 -20 -13 -5 -17 -15 -15 -34 2 -22 9
-29 31 -31 26 -3 27 -2 27 47 0 53 -3 60 -17 38z m-3 -58 c0 -11 -4 -17 -10
-14 -5 3 -10 13 -10 21 0 8 5 14 10 14 6 0 10 -9 10 -21z"/>
<path d="M660 2311 c0 -36 3 -41 23 -41 16 0 18 3 9 9 -8 5 -12 20 -10 36 2
16 -2 30 -9 32 -9 3 -13 -8 -13 -36z"/>
<path d="M967 2343 c-9 -16 6 -73 19 -73 11 0 12 4 2 19 -9 15 -9 23 0 34 7 7
9 17 5 20 -9 9 -21 9 -26 0z"/>
<path d="M1194 2336 c-10 -27 1 -61 21 -64 16 -3 18 -1 8 9 -16 17 -17 46 -1
51 7 3 5 7 -5 11 -11 4 -20 1 -23 -7z"/>
<path d="M1749 2346 c-3 -3 -3 -21 -1 -41 3 -28 9 -35 26 -35 15 0 17 3 8 9
-8 5 -12 20 -10 36 3 25 -11 43 -23 31z"/>
<path d="M2149 2346 c-3 -3 -3 -21 -1 -41 3 -28 9 -35 26 -35 15 0 17 3 8 9
-8 5 -12 20 -10 36 3 25 -11 43 -23 31z"/>
<path d="M3659 2346 c-3 -3 -3 -21 -1 -41 3 -28 9 -35 26 -35 15 0 17 3 8 9
-8 5 -12 20 -10 36 3 25 -11 43 -23 31z"/>
<path d="M4122 2313 c2 -29 8 -38 23 -40 11 -2 14 0 8 3 -16 7 -17 40 -2 50 8
4 7 9 -2 15 -25 16 -30 10 -27 -28z"/>
<path d="M195 2327 c17 -13 17 -14 -4 -20 -33 -8 -27 -37 9 -37 23 0 30 5 30
19 0 33 -11 51 -33 51 -20 0 -20 -1 -2 -13z m15 -37 c0 -5 -4 -10 -10 -10 -5
0 -10 5 -10 10 0 6 5 10 10 10 6 0 10 -4 10 -10z"/>
<path d="M257 2333 c-11 -10 -8 -93 3 -93 6 0 10 7 10 15 0 8 9 15 19 15 26 0
34 15 27 46 -5 17 -13 24 -30 24 -12 0 -26 -3 -29 -7z m39 -39 c-5 -13 -10
-14 -18 -6 -6 6 -8 18 -4 28 5 13 10 14 18 6 6 -6 8 -18 4 -28z"/>
<path d="M341 2288 c0 -29 3 -47 6 -40 3 7 16 18 30 23 19 7 24 15 21 37 -2
21 -9 28 -30 30 -28 3 -28 2 -27 -50z m39 11 c0 -11 -4 -17 -10 -14 -5 3 -10
15 -10 26 0 11 5 17 10 14 6 -3 10 -15 10 -26z"/>
<path d="M467 2333 c-11 -10 -8 -63 3 -63 6 0 10 16 10 35 0 36 -2 40 -13 28z"/>
<path d="M510 2325 c-19 -23 -3 -55 28 -54 26 0 26 1 5 9 -27 11 -29 28 -5 46
15 12 15 13 1 14 -9 0 -22 -7 -29 -15z"/>
<path d="M593 2334 c23 -7 22 -20 -3 -27 -33 -9 -25 -37 11 -37 28 0 30 2 27
33 -2 26 -8 32 -28 34 -14 1 -18 0 -7 -3z m17 -44 c0 -5 -4 -10 -10 -10 -5 0
-10 5 -10 10 0 6 5 10 10 10 6 0 10 -4 10 -10z"/>
<path d="M717 2333 c-11 -10 -8 -63 3 -63 6 0 10 16 10 35 0 36 -2 40 -13 28z"/>
<path d="M760 2325 c-6 -8 -9 -23 -5 -35 10 -31 59 -24 63 9 6 37 -34 55 -58
26z m40 -26 c0 -24 -23 -21 -28 4 -2 10 3 17 12 17 10 0 16 -9 16 -21z"/>
<path d="M840 2304 c0 -32 12 -42 16 -13 1 5 2 14 3 19 2 22 21 9 21 -15 0
-14 5 -25 11 -25 6 0 9 14 7 33 -2 27 -8 33 -30 35 -26 3 -28 1 -28 -34z"/>
<path d="M1135 2326 c20 -15 20 -15 -2 -16 -16 0 -23 -6 -23 -20 0 -16 7 -20
31 -20 28 0 30 2 27 33 -2 26 -8 33 -28 35 -24 3 -25 3 -5 -12z m15 -36 c0 -5
-4 -10 -10 -10 -5 0 -10 5 -10 10 0 6 5 10 10 10 6 0 10 -4 10 -10z"/>
<path d="M1374 2326 c-11 -28 0 -51 26 -53 15 -1 18 0 8 3 -25 7 -22 24 3 24
14 0 19 5 17 18 -4 22 -46 29 -54 8z m36 -6 c0 -5 -4 -10 -10 -10 -5 0 -10 5
-10 10 0 6 5 10 10 10 6 0 10 -4 10 -10z"/>
<path d="M1494 2331 c-9 -9 -4 -91 6 -91 6 0 10 7 10 15 0 8 9 15 19 15 26 0
34 15 27 45 -5 19 -12 24 -32 23 -14 -2 -27 -4 -30 -7z m42 -37 c-5 -13 -10
-14 -18 -6 -6 6 -8 18 -4 28 5 13 10 14 18 6 6 -6 8 -18 4 -28z"/>
<path d="M1574 2328 c-4 -6 0 -16 9 -23 22 -16 21 -22 0 -28 -11 -3 -7 -5 10
-6 20 -1 27 4 27 18 0 10 -8 22 -17 26 -17 7 -16 8 2 15 19 8 19 9 -2 9 -12 1
-25 -4 -29 -11z"/>
<path d="M1680 2326 c0 -7 7 -20 16 -27 14 -12 14 -14 -3 -20 -16 -7 -16 -8 4
-8 30 -1 40 19 17 36 -16 12 -17 15 -4 23 12 8 11 10 -7 10 -13 0 -23 -6 -23
-14z"/>
<path d="M1800 2321 c0 -37 12 -51 41 -51 26 0 29 3 29 35 0 41 -17 47 -22 8
-4 -34 -22 -33 -26 2 -4 29 -22 34 -22 6z"/>
<path d="M1979 2324 c-17 -21 0 -48 32 -51 15 -1 17 0 7 3 -24 7 -23 24 2 24
23 0 26 10 8 28 -16 16 -33 15 -49 -4z m36 -4 c3 -5 1 -10 -4 -10 -6 0 -11 5
-11 10 0 6 2 10 4 10 3 0 8 -4 11 -10z"/>
<path d="M2060 2303 c0 -21 4 -32 10 -28 6 4 8 10 5 14 -2 5 2 17 10 27 13 18
14 17 15 -13 0 -18 5 -33 11 -33 6 0 9 14 7 33 -3 27 -7 32 -30 33 -25 1 -28
-2 -28 -33z"/>
<path d="M2204 2328 c-4 -6 0 -16 9 -23 22 -16 21 -22 0 -28 -11 -3 -7 -5 10
-6 31 -1 36 19 11 40 -14 12 -14 14 3 20 16 7 16 8 -4 8 -12 1 -25 -4 -29 -11z"/>
<path d="M2328 2333 c19 -7 14 -20 -9 -26 -27 -7 -20 -31 10 -35 31 -5 41 7
34 41 -4 20 -11 27 -27 26 -11 0 -15 -3 -8 -6z m22 -37 c0 -11 -19 -15 -25 -6
-3 5 1 10 9 10 9 0 16 -2 16 -4z"/>
<path d="M2391 2301 l1 -36 11 28 c14 34 27 35 27 2 0 -14 5 -25 11 -25 6 0 9
14 7 33 -3 27 -7 32 -30 33 -26 1 -28 -2 -27 -35z"/>
<path d="M2601 2305 c0 -23 -6 -46 -13 -53 -9 -9 -8 -12 4 -12 21 0 25 16 17
65 l-6 40 -2 -40z"/>
<path d="M2640 2325 c-18 -22 -1 -50 31 -50 20 0 24 5 24 30 0 23 -5 31 -21
33 -11 2 -27 -4 -34 -13z m40 -26 c0 -24 -23 -21 -28 4 -2 10 3 17 12 17 10 0
16 -9 16 -21z"/>
<path d="M2843 2324 c-4 -10 1 -20 13 -27 17 -10 17 -11 -1 -18 -19 -7 -19 -8
2 -8 30 -1 40 19 17 36 -16 12 -17 15 -4 23 13 8 12 10 -3 10 -10 0 -20 -7
-24 -16z"/>
<path d="M2909 2324 c-17 -21 0 -48 32 -51 l24 -3 -25 12 -25 12 28 4 c29 4
33 12 15 30 -16 16 -33 15 -49 -4z m36 -4 c3 -5 1 -10 -4 -10 -6 0 -11 5 -11
10 0 6 2 10 4 10 3 0 8 -4 11 -10z"/>
<path d="M2990 2319 c-14 -25 3 -49 34 -48 19 0 19 1 -4 12 l-25 11 28 4 c29
4 33 12 15 30 -18 18 -36 15 -48 -9z m40 1 c0 -5 -4 -10 -10 -10 -5 0 -10 5
-10 10 0 6 5 10 10 10 6 0 10 -4 10 -10z"/>
<path d="M3154 2326 c-11 -28 0 -51 26 -53 15 -1 18 0 8 3 -25 7 -22 24 3 24
14 0 19 5 17 18 -4 22 -46 29 -54 8z m36 -6 c0 -5 -4 -10 -10 -10 -5 0 -10 5
-10 10 0 6 5 10 10 10 6 0 10 -4 10 -10z"/>
<path d="M3243 2333 c-15 -6 -18 -63 -3 -63 6 0 10 11 10 25 0 14 5 25 10 25
6 0 10 5 10 10 0 11 -7 12 -27 3z"/>
<path d="M3290 2326 c0 -7 7 -20 16 -27 14 -12 14 -14 -3 -20 -16 -7 -16 -8 4
-8 30 -1 40 19 17 36 -16 12 -17 15 -4 23 12 8 11 10 -7 10 -13 0 -23 -6 -23
-14z"/>
<path d="M3402 2331 c-23 -14 -10 -56 18 -59 24 -3 24 -3 6 11 -20 14 -16 54
4 42 5 -3 10 -1 10 4 0 13 -20 14 -38 2z"/>
<path d="M3460 2303 c0 -18 5 -33 10 -33 6 0 10 11 10 25 0 14 5 25 10 25 6 0
10 4 10 8 0 4 -9 8 -20 8 -16 0 -20 -7 -20 -33z"/>
<path d="M3543 2334 c23 -7 22 -20 -3 -27 -33 -9 -25 -37 11 -37 28 0 30 2 27
33 -2 26 -8 32 -28 34 -14 1 -18 0 -7 -3z m17 -44 c0 -5 -4 -10 -10 -10 -5 0
-10 5 -10 10 0 6 5 10 10 10 6 0 10 -4 10 -10z"/>
<path d="M3750 2305 c0 -19 5 -35 10 -35 6 0 10 16 10 35 0 19 -4 35 -10 35
-5 0 -10 -16 -10 -35z"/>
<path d="M3790 2305 c0 -41 17 -47 22 -7 4 33 22 32 26 -3 4 -31 20 -34 17 -2
-1 12 -3 28 -4 35 0 6 -14 12 -31 12 -28 0 -30 -3 -30 -35z"/>
<path d="M3962 2308 c3 -29 7 -33 36 -36 31 -3 32 -2 32 32 0 42 -17 49 -22 9
-4 -34 -22 -33 -26 2 -5 37 -24 30 -20 -7z"/>
<path d="M4054 2328 c-4 -6 0 -16 9 -23 22 -16 21 -22 0 -28 -11 -3 -7 -5 10
-6 31 -1 36 19 11 40 -14 12 -14 14 3 20 16 7 16 8 -4 8 -12 1 -25 -4 -29 -11z"/>
<path d="M4181 2300 l1 -35 11 28 c6 15 14 27 19 27 4 0 8 4 8 9 0 6 -9 9 -20
8 -16 -1 -20 -8 -19 -37z"/>
<path d="M4237 2334 c-3 -4 1 -20 9 -36 13 -24 13 -32 2 -45 -11 -14 -11 -15
2 -11 16 5 34 36 44 78 l7 25 -17 -23 -17 -24 -12 22 c-6 11 -14 18 -18 14z"/>
<path d="M4318 2303 c7 -3 16 -2 19 1 4 3 -2 6 -13 5 -11 0 -14 -3 -6 -6z"/>
<path d="M510 2175 c0 -8 -6 -15 -14 -15 -21 0 -38 -27 -31 -50 4 -14 15 -20
36 -20 28 0 29 1 29 50 0 28 -4 50 -10 50 -5 0 -10 -7 -10 -15z m-2 -52 c-4
-22 -22 -20 -26 1 -2 10 3 16 13 16 10 0 15 -7 13 -17z"/>
<path d="M740 2176 c0 -8 -10 -16 -22 -18 -18 -2 -23 -10 -23 -33 0 -27 4 -30
33 -33 32 -3 32 -3 32 42 0 25 -4 48 -10 51 -5 3 -10 -1 -10 -9z m-2 -53 c-4
-22 -22 -20 -26 1 -2 10 3 16 13 16 10 0 15 -7 13 -17z"/>
<path d="M1640 2176 c0 -8 -10 -16 -22 -18 -18 -2 -23 -10 -23 -33 0 -27 4
-30 33 -33 32 -3 32 -3 32 42 0 25 -4 48 -10 51 -5 3 -10 -1 -10 -9z m-2 -53
c-4 -22 -22 -20 -26 1 -2 10 3 16 13 16 10 0 15 -7 13 -17z"/>
<path d="M2012 2178 c-14 -14 -16 -88 -2 -88 6 0 10 14 10 30 0 17 4 30 8 30
4 0 8 9 8 20 0 23 -7 25 -24 8z"/>
<path d="M2140 2142 c0 -29 4 -52 9 -52 9 0 6 88 -3 98 -3 3 -6 -18 -6 -46z"/>
<path d="M3092 2140 l-1 -55 16 35 c16 34 17 34 21 10 6 -41 24 -50 20 -10 -2
27 -8 36 -25 38 -12 2 -24 11 -26 20 -3 9 -5 -8 -5 -38z"/>
<path d="M3383 2140 c0 -30 2 -43 4 -27 2 15 2 39 0 55 -2 15 -4 2 -4 -28z"/>
<path d="M3563 2175 c-11 -19 -4 -85 8 -85 5 0 10 14 10 30 2 38 3 42 12 58 5
7 3 12 -7 12 -8 0 -19 -7 -23 -15z"/>
<path d="M4170 2140 c0 -48 1 -50 29 -50 16 0 31 6 34 14 10 24 -4 56 -24 56
-11 0 -19 7 -19 15 0 8 -4 15 -10 15 -5 0 -10 -22 -10 -50z m48 -17 c-4 -22
-22 -20 -26 1 -2 10 3 16 13 16 10 0 15 -7 13 -17z"/>
<path d="M4261 2140 l1 -55 10 44 c7 30 6 47 -1 54 -8 8 -11 -4 -10 -43z"/>
<path d="M2807 2135 c-16 -45 -12 -56 11 -33 10 10 17 10 32 0 29 -18 30 -16
13 33 -8 25 -21 45 -28 45 -7 0 -20 -20 -28 -45z m37 10 c3 -9 0 -15 -9 -15
-9 0 -12 6 -9 15 4 8 7 15 9 15 2 0 5 -7 9 -15z"/>
<path d="M2896 2171 c-8 -13 -3 -81 7 -81 4 0 7 20 7 45 0 45 -4 53 -14 36z"/>
<path d="M3013 2169 c11 -6 17 -22 17 -44 0 -19 5 -35 10 -35 6 0 10 18 10 39
0 22 5 42 13 44 6 3 -6 6 -28 6 -32 0 -36 -2 -22 -10z"/>
<path d="M239 2165 c-3 -2 -3 -20 -1 -40 3 -28 8 -35 26 -34 11 0 15 3 9 6 -7
2 -13 16 -13 29 0 13 6 24 13 24 8 0 7 4 -3 10 -17 11 -24 12 -31 5z"/>
<path d="M1947 2163 c-3 -5 -3 -19 -2 -33 2 -14 4 -28 4 -32 1 -5 8 -8 16 -8
12 0 13 3 3 19 -9 15 -9 23 0 34 7 7 9 17 5 20 -9 9 -21 9 -26 0z"/>
<path d="M3504 2156 c-11 -28 1 -61 21 -63 11 -2 14 0 8 3 -16 7 -17 51 -1 56
7 3 5 7 -5 11 -11 4 -20 1 -23 -7z"/>
<path d="M170 2145 c0 -9 7 -18 15 -21 20 -8 19 -21 -2 -27 -14 -4 -13 -5 4
-6 30 -1 40 19 17 36 -16 12 -17 15 -4 23 12 8 11 10 -7 10 -14 0 -23 -6 -23
-15z"/>
<path d="M313 2153 c23 -6 22 -19 -4 -26 -31 -8 -18 -31 19 -35 29 -3 32 -1
28 20 -3 13 -5 29 -5 36 -1 7 -13 11 -28 11 -17 -1 -21 -3 -10 -6z m17 -43 c0
-5 -4 -10 -10 -10 -5 0 -10 5 -10 10 0 6 5 10 10 10 6 0 10 -4 10 -10z"/>
<path d="M381 2123 c1 -37 1 -37 11 -10 12 34 28 35 28 2 0 -14 5 -25 11 -25
6 0 9 14 7 33 -2 27 -8 33 -30 35 -26 3 -28 1 -27 -35z"/>
<path d="M573 2154 c23 -7 22 -24 -3 -24 -13 0 -20 -7 -20 -20 0 -16 7 -20 31
-20 28 0 30 2 27 33 -2 26 -8 32 -28 34 -14 1 -18 0 -7 -3z m17 -44 c0 -5 -4
-10 -10 -10 -5 0 -10 5 -10 10 0 6 5 10 10 10 6 0 10 -4 10 -10z"/>
<path d="M637 2153 c-11 -10 -8 -63 3 -63 6 0 10 11 10 25 0 14 5 25 10 25 6
0 10 5 10 10 0 11 -23 14 -33 3z"/>
<path d="M815 2151 c-9 -9 -5 -61 5 -61 6 0 10 8 10 17 0 9 7 24 16 34 15 17
15 18 -5 16 -12 -1 -24 -3 -26 -6z"/>
<path d="M879 2144 c-17 -21 0 -48 32 -51 l24 -3 -25 12 -25 12 28 4 c21 2 27
8 23 19 -3 8 -6 17 -6 19 0 11 -39 2 -51 -12z m36 -4 c3 -5 1 -10 -4 -10 -6 0
-11 5 -11 10 0 6 2 10 4 10 3 0 8 -4 11 -10z"/>
<path d="M954 2148 c-4 -6 0 -16 9 -23 22 -16 21 -22 0 -28 -11 -3 -7 -5 10
-6 31 -1 36 19 11 40 -14 12 -14 14 3 20 16 7 16 8 -4 8 -12 1 -25 -4 -29 -11z"/>
<path d="M1022 2128 c3 -29 6 -33 33 -33 32 0 43 21 29 53 -6 13 -8 11 -13
-12 -7 -36 -25 -36 -29 -1 -5 37 -24 30 -20 -7z"/>
<path d="M1110 2125 c0 -19 5 -35 10 -35 6 0 10 11 10 24 0 14 4 27 9 30 10 7
24 -22 16 -34 -3 -5 -1 -11 4 -14 5 -3 12 5 15 19 8 32 26 32 26 0 0 -14 5
-25 11 -25 6 0 9 14 7 33 -3 31 -4 32 -55 35 l-53 2 0 -35z"/>
<path d="M1251 2151 c-9 -6 -11 -18 -7 -35 5 -20 12 -26 34 -25 l27 0 -25 11
-25 11 23 5 c15 2 22 9 20 20 -4 19 -27 26 -47 13z m29 -11 c0 -5 -5 -10 -11
-10 -5 0 -7 5 -4 10 3 6 8 10 11 10 2 0 4 -4 4 -10z"/>
<path d="M1325 2150 c-4 -6 -1 -18 6 -26 10 -13 10 -17 -2 -25 -11 -7 -9 -9 8
-9 30 0 40 20 17 37 -16 12 -17 15 -4 23 13 8 13 10 -2 10 -9 0 -20 -5 -23
-10z"/>
<path d="M1443 2154 c23 -7 22 -20 -3 -27 -33 -9 -25 -37 11 -37 28 0 30 2 27
33 -2 26 -8 32 -28 34 -14 1 -18 0 -7 -3z m17 -44 c0 -5 -4 -10 -10 -10 -5 0
-10 5 -10 10 0 6 5 10 10 10 6 0 10 -4 10 -10z"/>
<path d="M1507 2154 c-10 -11 -9 -64 2 -64 5 0 11 11 13 25 2 14 8 26 13 26 6
0 11 -12 13 -26 5 -37 24 -30 20 8 -2 26 -8 33 -28 35 -14 2 -29 0 -33 -4z"/>
<path d="M1717 2153 c-11 -10 -8 -93 3 -93 6 0 10 7 10 15 0 8 9 15 20 15 21
0 38 40 25 59 -7 12 -48 15 -58 4z m39 -39 c-5 -13 -10 -14 -18 -6 -6 6 -8 18
-4 28 5 13 10 14 18 6 6 -6 8 -18 4 -28z"/>
<path d="M1804 2146 c-11 -29 0 -51 26 -51 21 0 25 5 25 30 0 24 -5 31 -23 33
-13 2 -24 -3 -28 -12z m39 -12 c3 -3 3 -12 0 -20 -4 -11 -9 -12 -19 -3 -8 6
-11 15 -8 20 6 10 18 12 27 3z"/>
<path d="M1885 2151 c-9 -9 -5 -61 5 -61 6 0 10 8 10 17 0 9 7 24 16 34 15 17
15 18 -5 16 -12 -1 -24 -3 -26 -6z"/>
<path d="M2060 2145 c-19 -23 -8 -50 22 -53 19 -2 28 2 33 18 12 39 -29 66
-55 35z m38 -22 c-4 -22 -22 -20 -26 1 -2 10 3 16 13 16 10 0 15 -7 13 -17z"/>
<path d="M2180 2124 c0 -19 4 -33 8 -30 8 5 4 66 -4 66 -2 0 -4 -16 -4 -36z"/>
<path d="M2224 2146 c-11 -29 0 -51 26 -51 21 0 25 5 25 30 0 24 -5 31 -23 33
-13 2 -24 -3 -28 -12z m39 -33 c-7 -17 -19 -17 -26 1 -7 18 14 40 24 24 4 -6
5 -17 2 -25z"/>
<path d="M2304 2148 c-4 -6 0 -16 9 -23 22 -16 21 -22 0 -28 -11 -3 -7 -5 10
-6 31 -1 36 19 11 40 -14 12 -14 14 3 20 16 7 16 8 -4 8 -12 1 -25 -4 -29 -11z"/>
<path d="M2400 2141 c0 -37 12 -51 41 -51 26 0 29 3 29 35 0 41 -17 47 -22 8
-4 -34 -22 -33 -26 2 -4 29 -22 34 -22 6z"/>
<path d="M2494 2148 c-4 -6 0 -16 9 -23 22 -16 21 -22 0 -28 -11 -3 -7 -5 10
-6 30 -1 39 25 12 35 -20 8 -19 21 3 27 13 4 12 5 -5 6 -12 0 -25 -4 -29 -11z"/>
<path d="M2560 2125 c0 -19 5 -35 10 -35 6 0 10 16 10 35 0 19 -4 35 -10 35
-5 0 -10 -16 -10 -35z"/>
<path d="M2600 2125 c0 -41 17 -47 22 -7 4 33 22 32 26 -3 3 -25 22 -36 22
-12 -1 39 -13 57 -41 57 -26 0 -29 -3 -29 -35z"/>
<path d="M2697 2153 c-3 -5 -7 -26 -8 -48 -4 -38 -3 -40 25 -40 37 0 46 22 14
34 -12 6 -19 10 -14 10 5 1 3 7 -3 15 -8 10 -9 16 -1 21 5 3 10 -1 10 -9 0
-23 17 -20 23 4 4 16 0 20 -18 20 -13 0 -26 -3 -28 -7z m33 -73 c0 -5 -7 -10
-15 -10 -8 0 -15 5 -15 10 0 6 7 10 15 10 8 0 15 -4 15 -10z"/>
<path d="M3179 2144 c-17 -21 0 -48 32 -51 15 -1 17 0 7 3 -25 7 -22 24 3 24
15 0 19 4 15 16 -3 9 -6 18 -6 20 0 11 -39 2 -51 -12z m36 -4 c3 -5 1 -10 -4
-10 -6 0 -11 5 -11 10 0 6 2 10 4 10 3 0 8 -4 11 -10z"/>
<path d="M3290 2110 c0 -27 5 -50 10 -50 6 0 10 7 10 15 0 8 9 15 19 15 22 0
32 20 24 49 -4 15 -13 21 -34 21 -28 0 -29 -2 -29 -50z m48 13 c-4 -22 -22
-20 -26 1 -2 10 3 16 13 16 10 0 15 -7 13 -17z"/>
<path d="M3433 2153 c23 -6 22 -19 -4 -26 -27 -7 -20 -31 10 -35 31 -5 43 10
35 42 -5 20 -12 26 -33 25 -17 -1 -20 -3 -8 -6z m17 -43 c0 -5 -2 -10 -4 -10
-3 0 -8 5 -11 10 -3 6 -1 10 4 10 6 0 11 -4 11 -10z"/>
<path d="M3614 2146 c-11 -29 0 -51 26 -51 21 0 25 5 25 30 0 24 -5 31 -23 33
-13 2 -24 -3 -28 -12z m40 -14 c2 -4 0 -14 -5 -22 -8 -13 -10 -13 -18 0 -10
15 -6 30 9 30 5 0 11 -4 14 -8z"/>
<path d="M3690 2124 c0 -19 5 -34 10 -34 6 0 10 8 10 17 0 9 7 24 15 33 15 16
14 18 -10 18 -22 0 -25 -5 -25 -34z"/>
<path d="M3757 2153 c-11 -10 -8 -63 3 -63 6 0 10 11 10 25 0 16 6 25 15 25 9
0 15 -9 15 -25 0 -14 5 -25 10 -25 6 0 10 11 10 25 0 14 5 25 10 25 10 0 14
-14 11 -37 -1 -7 3 -13 9 -13 7 0 10 14 8 33 -3 31 -5 32 -49 35 -25 1 -49 -1
-52 -5z"/>
<path d="M3924 2146 c-12 -30 0 -51 31 -53 20 -1 23 0 8 4 -29 6 -30 23 -2 23
14 0 19 5 17 18 -4 22 -46 29 -54 8z m36 -6 c0 -5 -4 -10 -10 -10 -5 0 -10 5
-10 10 0 6 5 10 10 10 6 0 10 -4 10 -10z"/>
<path d="M4000 2125 c0 -19 5 -35 10 -35 6 0 10 11 10 25 0 16 6 25 15 25 9 0
15 -9 15 -25 0 -14 5 -25 10 -25 6 0 10 9 10 19 0 37 -12 51 -41 51 -26 0 -29
-3 -29 -35z"/>
<path d="M4115 2150 c19 -9 19 -9 -2 -16 -13 -3 -23 -14 -23 -25 0 -15 7 -19
31 -19 28 0 30 2 27 33 -2 26 -8 32 -28 34 -23 2 -23 2 -5 -7z m15 -40 c0 -5
-4 -10 -10 -10 -5 0 -10 5 -10 10 0 6 5 10 10 10 6 0 10 -4 10 -10z"/>
<path d="M4300 2145 c-19 -23 -3 -55 28 -54 17 1 21 3 10 6 -25 6 -22 23 3 23
15 0 19 4 15 16 -3 9 -6 18 -6 20 0 10 -39 2 -50 -11z"/>
<path d="M4374 2148 c-4 -6 0 -16 9 -23 22 -16 21 -22 0 -28 -12 -3 -8 -5 9
-6 33 -1 43 12 24 32 -11 11 -12 17 -3 26 8 8 6 11 -10 11 -12 0 -25 -5 -29
-12z"/>
<path d="M880 1986 c0 -8 -10 -16 -22 -18 -18 -2 -23 -10 -23 -33 0 -27 3 -30
30 -30 28 0 30 2 31 43 1 23 -2 45 -7 48 -5 3 -9 -2 -9 -10z m-4 -62 c-5 -13
-10 -14 -18 -6 -6 6 -8 18 -4 28 5 13 10 14 18 6 6 -6 8 -18 4 -28z"/>
<path d="M1503 1985 c-11 -19 -4 -85 8 -85 5 0 9 12 10 28 0 15 2 37 5 50 4
25 -11 30 -23 7z"/>
<path d="M2431 1952 c-1 -52 -1 -53 27 -50 23 3 27 8 27 33 0 23 -5 31 -22 33
-12 2 -24 11 -26 20 -3 9 -5 -7 -6 -36z m39 -18 c0 -14 -4 -23 -10 -19 -5 3
-10 15 -10 26 0 10 5 19 10 19 6 0 10 -12 10 -26z"/>
<path d="M2590 1985 c0 -8 -9 -15 -19 -15 -22 0 -35 -28 -25 -54 4 -10 17 -16
35 -16 28 0 29 2 29 50 0 28 -4 50 -10 50 -5 0 -10 -7 -10 -15z m0 -56 c0 -24
-23 -21 -28 4 -2 10 3 17 12 17 10 0 16 -9 16 -21z"/>
<path d="M3688 1994 c-11 -11 -10 -94 1 -94 5 0 11 12 13 28 2 15 8 27 13 27
6 0 11 -12 13 -27 5 -40 24 -35 20 5 -2 24 -8 33 -25 35 -12 2 -23 10 -25 19
-2 8 -6 11 -10 7z"/>
<path d="M4178 1994 c-5 -4 -8 -27 -8 -51 0 -44 0 -44 33 -41 28 3 32 6 32 33
0 23 -5 31 -22 33 -12 2 -23 10 -25 19 -2 8 -6 11 -10 7z m40 -61 c-4 -22 -22
-20 -26 1 -2 10 3 16 13 16 10 0 15 -7 13 -17z"/>
<path d="M344 1966 c-10 -26 1 -61 19 -64 16 -3 17 -1 6 16 -10 16 -10 24 -1
35 10 12 9 16 -3 21 -9 3 -18 0 -21 -8z"/>
<path d="M697 1973 c-2 -4 -2 -23 0 -40 4 -26 10 -33 27 -33 15 0 17 3 8 9 -8
5 -12 20 -10 36 3 26 -14 46 -25 28z"/>
<path d="M1909 1975 c-3 -2 -3 -20 -1 -40 3 -28 8 -35 26 -34 11 0 15 3 9 6
-7 2 -13 16 -13 29 0 13 6 24 13 24 8 0 7 4 -3 10 -17 11 -24 12 -31 5z"/>
<path d="M1970 1940 c0 -35 3 -40 23 -39 12 0 16 3 10 6 -7 2 -13 16 -13 29 0
13 6 24 13 24 8 0 7 4 -3 10 -25 16 -30 12 -30 -30z"/>
<path d="M3035 1971 c-9 -16 7 -71 21 -71 11 0 12 4 2 19 -9 15 -9 23 0 34 10
12 9 16 -2 20 -9 4 -18 2 -21 -2z"/>
<path d="M3557 1973 c-9 -16 6 -73 19 -73 11 0 12 4 2 19 -9 15 -9 23 0 34 7
7 9 17 5 20 -9 9 -21 9 -26 0z"/>
<path d="M195 1960 c19 -9 19 -9 -2 -16 -13 -3 -23 -14 -23 -25 0 -15 7 -19
31 -19 28 0 30 2 27 33 -2 26 -8 32 -28 34 -23 2 -23 2 -5 -7z m15 -40 c0 -5
-4 -10 -10 -10 -5 0 -10 5 -10 10 0 6 5 10 10 10 6 0 10 -4 10 -10z"/>
<path d="M256 1958 c-14 -32 -3 -53 32 -56 31 -3 32 -2 32 32 0 42 -17 49 -22
9 -4 -37 -21 -36 -29 2 -5 24 -7 26 -13 13z"/>
<path d="M404 1956 c-11 -29 0 -51 26 -51 21 0 25 5 25 30 0 24 -5 31 -23 33
-13 2 -24 -3 -28 -12z m39 -33 c-3 -7 -9 -13 -14 -13 -11 0 -12 34 -2 43 9 10
22 -13 16 -30z"/>
<path d="M480 1935 c0 -41 17 -47 22 -7 4 33 22 32 26 -3 4 -32 22 -33 22 0 0
14 5 25 10 25 6 0 10 -9 10 -19 0 -11 5 -23 10 -26 6 -4 10 8 10 28 l0 35 -55
1 -55 0 0 -34z"/>
<path d="M633 1964 c19 -6 24 -54 6 -54 -6 0 -8 7 -5 16 4 10 1 14 -6 12 -7
-3 -14 -12 -16 -21 -3 -13 4 -17 28 -17 29 0 31 2 28 33 -2 26 -8 32 -28 34
-14 1 -18 0 -7 -3z"/>
<path d="M756 1952 c-10 -31 4 -52 33 -51 l26 0 -25 11 -25 11 23 5 c29 5 26
36 -5 40 -14 2 -23 -3 -27 -16z m34 -2 c0 -5 -4 -10 -10 -10 -5 0 -10 5 -10
10 0 6 5 10 10 10 6 0 10 -4 10 -10z"/>
<path d="M955 1961 c-9 -9 -5 -61 5 -61 6 0 10 8 10 17 0 9 7 24 16 34 15 17
15 18 -5 16 -12 -1 -24 -3 -26 -6z"/>
<path d="M1019 1954 c-17 -21 0 -48 32 -51 15 -1 17 0 7 3 -24 7 -23 24 2 24
23 0 26 10 8 28 -16 16 -33 15 -49 -4z m41 -4 c0 -5 -4 -10 -10 -10 -5 0 -10
5 -10 10 0 6 5 10 10 10 6 0 10 -4 10 -10z"/>
<path d="M1094 1958 c-4 -6 0 -16 9 -23 22 -16 21 -22 0 -28 -11 -3 -7 -5 10
-6 31 -1 36 19 11 40 -14 12 -14 14 3 20 16 7 16 8 -4 8 -12 1 -25 -4 -29 -11z"/>
<path d="M1162 1938 c3 -29 7 -33 36 -36 31 -3 32 -2 32 34 0 38 -14 38 -22 1
-5 -27 -23 -22 -26 8 -5 37 -24 30 -20 -7z"/>
<path d="M1250 1935 c0 -19 5 -35 10 -35 6 0 10 11 10 24 0 39 19 41 27 4 6
-31 7 -31 13 -9 8 34 30 39 30 7 0 -14 5 -26 11 -26 6 0 9 14 7 33 -3 31 -4
32 -55 35 l-53 2 0 -35z"/>
<path d="M1391 1956 c-21 -25 -9 -51 24 -53 l30 -3 -25 12 -25 11 23 5 c15 2
22 9 20 20 -4 22 -32 27 -47 8z"/>
<path d="M1554 1956 c-11 -29 0 -51 26 -51 21 0 25 5 25 30 0 24 -5 31 -23 33
-13 2 -24 -3 -28 -12z m39 -33 c-4 -10 -9 -11 -19 -2 -11 9 -12 15 -3 26 14
17 31 -1 22 -24z"/>
<path d="M1635 1961 c-9 -9 -5 -61 5 -61 6 0 10 8 10 17 0 9 7 24 16 34 15 17
15 18 -5 16 -12 -1 -24 -3 -26 -6z"/>
<path d="M1697 1963 c-11 -10 -8 -63 2 -63 5 0 11 11 13 25 2 14 8 26 13 26 6
0 11 -12 13 -26 4 -32 22 -33 22 0 0 14 5 25 10 25 6 0 10 -11 10 -25 0 -14 5
-25 11 -25 6 0 9 14 7 33 -3 31 -5 32 -49 35 -25 1 -49 -1 -52 -5z"/>
<path d="M1843 1963 c19 -5 25 -53 6 -53 -6 0 -8 7 -5 16 4 10 1 14 -6 12 -26
-9 -13 -33 20 -36 29 -3 32 -1 28 20 -3 13 -5 29 -5 36 -1 7 -13 11 -28 11
-17 -1 -21 -3 -10 -6z"/>
<path d="M2027 1963 c-11 -10 -8 -63 3 -63 6 0 10 16 10 35 0 36 -2 40 -13 28z"/>
<path d="M2067 1964 c-10 -10 -9 -64 2 -64 5 0 11 14 15 31 7 35 26 30 26 -7
0 -13 5 -24 11 -24 6 0 9 14 7 33 -2 26 -8 33 -28 35 -14 2 -29 0 -33 -4z"/>
<path d="M2157 1963 c-2 -5 -5 -27 -6 -50 -1 -41 0 -43 29 -43 23 0 30 4 30
20 0 11 -7 20 -15 20 -8 0 -15 4 -15 9 0 5 7 11 15 15 25 9 18 36 -9 36 -14 0
-27 -3 -29 -7z m33 -13 c0 -5 -4 -10 -10 -10 -5 0 -10 5 -10 10 0 6 5 10 10
10 6 0 10 -4 10 -10z m0 -60 c0 -5 -7 -10 -16 -10 -8 0 -12 5 -9 10 3 6 10 10
16 10 5 0 9 -4 9 -10z"/>
<path d="M2305 1958 c-11 -36 -10 -88 2 -88 9 0 13 16 13 50 0 48 -6 64 -15
38z"/>
<path d="M2350 1955 c-19 -23 -8 -50 22 -53 19 -2 28 2 33 18 12 39 -29 66
-55 35z m36 -31 c-5 -13 -10 -14 -18 -6 -6 6 -8 18 -4 28 5 13 10 14 18 6 6
-6 8 -18 4 -28z"/>
<path d="M2634 1946 c-8 -33 2 -46 34 -45 l27 0 -25 11 -25 11 23 5 c30 5 26
36 -5 40 -17 3 -24 -3 -29 -22z m36 4 c0 -5 -4 -10 -10 -10 -5 0 -10 5 -10 10
0 6 5 10 10 10 6 0 10 -4 10 -10z"/>
<path d="M2715 1959 c-4 -5 1 -19 10 -29 15 -17 15 -19 -2 -23 -15 -4 -14 -5
4 -6 30 -1 40 19 17 36 -16 12 -17 15 -4 23 13 8 13 10 -2 10 -9 0 -20 -5 -23
-11z"/>
<path d="M2780 1955 c-19 -23 -3 -55 28 -54 26 0 26 1 5 9 -13 5 -23 16 -23
25 0 9 10 20 23 25 22 9 22 9 1 9 -12 1 -27 -6 -34 -14z"/>
<path d="M2851 1930 l1 -35 10 28 c5 15 14 27 19 27 5 0 9 4 9 9 0 6 -9 9 -20
8 -16 -1 -20 -8 -19 -37z"/>
<path d="M2910 1935 c0 -19 5 -35 10 -35 6 0 10 16 10 35 0 19 -4 35 -10 35
-5 0 -10 -16 -10 -35z"/>
<path d="M2950 1920 c0 -27 5 -50 10 -50 6 0 10 7 10 15 0 8 9 15 19 15 22 0
34 25 26 51 -4 13 -16 19 -36 19 -28 0 -29 -1 -29 -50z m42 -2 c-13 -13 -26 8
-17 30 6 16 7 16 17 -1 7 -13 7 -22 0 -29z"/>
<path d="M3097 1963 c-11 -10 -8 -63 3 -63 6 0 10 16 10 35 0 36 -2 40 -13 28z"/>
<path d="M3142 1961 c-8 -4 -12 -19 -10 -32 4 -33 53 -40 63 -9 11 36 -22 61
-53 41z m35 -35 c-4 -9 -11 -16 -17 -16 -11 0 -14 33 -3 44 11 10 26 -11 20
-28z"/>
<path d="M3221 1933 l1 -38 16 35 c15 34 16 34 20 10 6 -41 24 -50 20 -10 -3
30 -7 35 -30 38 -26 3 -28 1 -27 -35z"/>
<path d="M3340 1935 c0 -19 5 -35 10 -35 6 0 10 11 10 24 0 38 17 40 26 4 7
-31 8 -32 13 -9 9 34 31 39 31 7 0 -14 5 -26 11 -26 6 0 9 14 7 33 -3 31 -4
32 -55 35 l-53 2 0 -35z"/>
<path d="M3493 1964 c23 -7 22 -20 -3 -27 -33 -9 -25 -37 11 -37 28 0 30 2 27
33 -2 26 -8 32 -28 34 -14 1 -18 0 -7 -3z m17 -44 c0 -5 -4 -10 -10 -10 -5 0
-10 5 -10 10 0 6 5 10 10 10 6 0 10 -4 10 -10z"/>
<path d="M3622 1961 c-23 -14 -10 -56 18 -59 22 -2 23 -1 8 8 -10 6 -18 17
-18 25 0 8 8 19 18 24 13 8 14 10 2 11 -8 0 -21 -4 -28 -9z"/>
<path d="M3770 1935 c0 -19 5 -35 10 -35 6 0 10 16 10 35 0 19 -4 35 -10 35
-5 0 -10 -16 -10 -35z"/>
<path d="M3810 1935 c0 -41 17 -47 22 -7 4 33 22 32 26 -3 3 -25 22 -36 22
-12 -1 39 -13 57 -41 57 -26 0 -29 -3 -29 -35z"/>
<path d="M3907 1963 c-3 -5 -7 -26 -8 -48 -4 -38 -3 -40 25 -40 37 0 46 22 14
34 -12 6 -19 10 -14 10 5 1 3 7 -3 15 -8 10 -9 16 -1 21 5 3 10 -1 10 -9 0
-23 17 -20 23 4 4 16 0 20 -18 20 -13 0 -26 -3 -28 -7z m33 -73 c0 -5 -7 -10
-15 -10 -8 0 -15 5 -15 10 0 6 7 10 15 10 8 0 15 -4 15 -10z"/>
<path d="M4050 1932 c0 -21 -6 -44 -12 -51 -11 -10 -9 -12 7 -9 16 2 21 12 23
51 2 28 -1 47 -7 47 -6 0 -11 -17 -11 -38z"/>
<path d="M4094 1956 c-11 -29 0 -51 26 -51 21 0 25 5 25 30 0 24 -5 31 -23 33
-13 2 -24 -3 -28 -12z m39 -9 c3 -8 1 -20 -4 -28 -8 -12 -10 -12 -18 0 -10 15
-4 41 9 41 4 0 10 -6 13 -13z"/>
<path d="M2231 1894 c0 -11 3 -14 6 -6 3 7 2 16 -1 19 -3 4 -6 -2 -5 -13z"/>
<path d="M3977 1903 c-4 -3 -7 -11 -7 -17 0 -6 5 -5 12 2 6 6 9 14 7 17 -3 3
-9 2 -12 -2z"/>
<path d="M427 1813 c-11 -10 -8 -93 3 -93 6 0 10 23 10 50 0 51 -1 55 -13 43z"/>
<path d="M1238 1814 c-11 -11 -10 -94 1 -94 5 0 11 6 14 13 4 10 7 10 18 0 18
-18 34 -16 19 2 -7 8 -9 24 -5 37 6 19 5 21 -6 11 -20 -19 -27 -16 -31 13 -2
14 -6 22 -10 18z"/>
<path d="M1810 1806 c0 -8 -10 -16 -22 -18 -18 -2 -23 -10 -23 -33 0 -27 4
-30 33 -33 32 -3 32 -3 32 42 0 25 -4 48 -10 51 -5 3 -10 -1 -10 -9z m-2 -53
c-4 -22 -22 -20 -26 1 -2 10 3 16 13 16 10 0 15 -7 13 -17z"/>
<path d="M3007 1813 c-11 -10 -8 -93 3 -93 6 0 10 23 10 50 0 51 -1 55 -13 43z"/>
<path d="M3092 1808 c-14 -14 -16 -88 -2 -88 6 0 10 11 10 23 0 13 3 27 7 31
10 10 14 46 5 46 -4 0 -13 -5 -20 -12z"/>
<path d="M3310 1770 c0 -51 16 -70 22 -25 4 35 22 36 26 3 3 -27 22 -40 22
-15 0 32 -14 57 -31 57 -11 0 -19 7 -19 15 0 8 -4 15 -10 15 -5 0 -10 -22 -10
-50z"/>
<path d="M2404 1786 c-9 -37 -1 -60 21 -63 11 -2 14 0 8 3 -15 7 -17 36 -4 50
6 5 4 14 -5 22 -11 10 -15 8 -20 -12z"/>
<path d="M660 1761 c0 -36 3 -41 23 -41 16 0 18 3 9 9 -8 5 -12 20 -10 36 2
16 -2 30 -9 32 -9 3 -13 -8 -13 -36z"/>
<path d="M966 1791 c-10 -16 6 -71 20 -71 11 0 12 4 2 19 -9 15 -9 23 0 34 7
7 9 17 5 20 -9 10 -21 9 -27 -2z"/>
<path d="M2865 1789 c-11 -16 6 -69 21 -69 11 0 12 4 2 19 -9 15 -9 23 0 34
10 12 9 16 -2 20 -9 4 -18 2 -21 -4z"/>
<path d="M195 1776 c20 -15 20 -15 -2 -16 -16 0 -23 -6 -23 -20 0 -16 7 -20
31 -20 28 0 30 2 27 33 -2 26 -8 33 -28 35 -24 3 -25 3 -5 -12z m15 -30 c0 -3
-4 -8 -10 -11 -5 -3 -10 -1 -10 4 0 6 5 11 10 11 6 0 10 -2 10 -4z"/>
<path d="M257 1784 c-11 -11 -8 -94 3 -94 6 0 10 6 10 14 0 8 10 16 23 18 17
2 22 10 22 33 0 25 -5 31 -25 33 -14 2 -29 0 -33 -4z m39 -40 c-5 -13 -10 -14
-18 -6 -6 6 -8 18 -4 28 5 13 10 14 18 6 6 -6 8 -18 4 -28z"/>
<path d="M340 1738 c1 -44 3 -50 13 -37 7 8 20 18 30 22 13 5 17 15 15 34 -2
22 -9 29 -30 31 -27 3 -28 2 -28 -50z m40 12 c0 -11 -4 -20 -10 -20 -5 0 -10
9 -10 20 0 11 5 20 10 20 6 0 10 -9 10 -20z"/>
<path d="M467 1783 c-11 -10 -8 -63 3 -63 6 0 10 16 10 35 0 36 -2 40 -13 28z"/>
<path d="M510 1775 c-19 -23 -3 -55 28 -54 26 0 26 1 5 9 -27 11 -30 35 -5 49
15 9 15 10 1 11 -9 0 -22 -7 -29 -15z"/>
<path d="M593 1784 c23 -7 22 -20 -3 -27 -33 -9 -25 -37 11 -37 28 0 30 2 27
33 -2 26 -8 32 -28 34 -14 1 -18 0 -7 -3z m17 -44 c0 -5 -4 -10 -10 -10 -5 0
-10 5 -10 10 0 6 5 10 10 10 6 0 10 -4 10 -10z"/>
<path d="M717 1783 c-11 -10 -8 -63 3 -63 6 0 10 16 10 35 0 36 -2 40 -13 28z"/>
<path d="M759 1774 c-17 -21 0 -49 32 -49 18 0 25 6 27 24 6 38 -34 55 -59 25z
m41 -25 c0 -24 -23 -21 -28 4 -2 10 3 17 12 17 10 0 16 -9 16 -21z"/>
<path d="M840 1756 c0 -20 5 -36 10 -36 6 0 9 3 9 8 -1 4 -1 15 0 25 2 27 21
20 21 -8 0 -14 5 -25 11 -25 6 0 9 14 7 33 -2 27 -8 33 -30 35 -26 3 -28 1
-28 -32z"/>
<path d="M1020 1753 c0 -18 5 -33 10 -33 6 0 10 11 10 25 0 14 5 25 10 25 6 0
10 4 10 9 0 6 -9 9 -20 8 -16 -1 -20 -8 -20 -34z"/>
<path d="M1103 1783 c23 -6 22 -19 -3 -26 -33 -8 -25 -37 10 -37 23 0 30 5 30
19 0 34 -12 51 -34 50 -16 -1 -17 -2 -3 -6z m17 -37 c0 -3 -4 -8 -10 -11 -5
-3 -10 -1 -10 4 0 6 5 11 10 11 6 0 10 -2 10 -4z"/>
<path d="M1170 1775 c-18 -22 -8 -50 20 -53 24 -3 24 -3 6 11 -20 14 -16 54 4
42 5 -3 10 -1 10 4 0 16 -26 13 -40 -4z"/>
<path d="M1323 1755 c0 -22 2 -30 4 -17 2 12 2 30 0 40 -3 9 -5 -1 -4 -23z"/>
<path d="M1360 1756 c0 -20 4 -36 9 -36 5 0 7 8 4 18 -2 10 3 24 11 31 14 12
16 9 16 -18 0 -17 5 -31 11 -31 6 0 9 14 7 33 -2 27 -8 33 -30 35 -26 3 -28 1
-28 -32z"/>
<path d="M1447 1783 c-3 -5 -5 -19 -5 -33 0 -14 -1 -32 -3 -40 -3 -11 6 -16
29 -18 27 -3 32 0 32 17 0 12 -7 21 -15 21 -8 0 -15 4 -15 9 0 5 7 11 15 15
25 9 18 36 -9 36 -14 0 -27 -3 -29 -7z m33 -13 c0 -5 -4 -10 -10 -10 -5 0 -10
5 -10 10 0 6 5 10 10 10 6 0 10 -4 10 -10z m0 -60 c0 -5 -7 -10 -16 -10 -8 0
-12 5 -9 10 3 6 10 10 16 10 5 0 9 -4 9 -10z"/>
<path d="M1613 1784 c23 -7 22 -20 -3 -27 -33 -9 -25 -37 11 -37 28 0 30 2 27
33 -2 26 -8 32 -28 34 -14 1 -18 0 -7 -3z m17 -44 c0 -5 -4 -10 -10 -10 -5 0
-10 5 -10 10 0 6 5 10 10 10 6 0 10 -4 10 -10z"/>
<path d="M1681 1751 c1 -36 1 -36 11 -8 12 34 28 35 28 2 0 -14 5 -25 11 -25
6 0 9 14 7 33 -3 27 -7 32 -30 33 -26 1 -28 -2 -27 -35z"/>
<path d="M1903 1784 c23 -7 22 -20 -4 -27 -29 -8 -19 -31 15 -35 26 -3 27 -1
24 30 -2 27 -7 33 -28 35 -14 1 -18 0 -7 -3z m17 -44 c0 -5 -4 -10 -10 -10 -5
0 -10 5 -10 10 0 6 5 10 10 10 6 0 10 -4 10 -10z"/>
<path d="M2000 1753 c0 -18 5 -33 10 -33 6 0 10 11 10 25 0 14 5 25 10 25 6 0
10 4 10 9 0 6 -9 9 -20 8 -16 -1 -20 -8 -20 -34z"/>
<path d="M2064 1776 c-11 -28 0 -51 26 -53 15 -1 18 0 8 3 -25 7 -22 24 3 24
14 0 19 5 17 18 -4 22 -46 29 -54 8z m36 -6 c0 -5 -4 -10 -10 -10 -5 0 -10 5
-10 10 0 6 5 10 10 10 6 0 10 -4 10 -10z"/>
<path d="M2152 1781 c-8 -4 -12 -19 -10 -32 2 -17 10 -25 28 -26 14 -1 18 1 8
3 -26 8 -29 32 -5 49 23 16 4 22 -21 6z"/>
<path d="M2210 1753 c0 -18 5 -33 10 -33 6 0 10 11 10 25 0 14 5 25 10 25 6 0
10 4 10 9 0 6 -9 9 -20 8 -16 -1 -20 -8 -20 -34z"/>
<path d="M2272 1760 c3 -31 7 -35 34 -38 28 -3 31 -1 28 25 -4 46 -6 49 -13
19 -7 -34 -24 -40 -29 -11 -7 38 -24 42 -20 5z"/>
<path d="M2360 1755 c0 -19 5 -35 10 -35 6 0 10 16 10 35 0 19 -4 35 -10 35
-5 0 -10 -16 -10 -35z"/>
<path d="M2464 1776 c-11 -28 0 -51 26 -53 15 -1 18 0 8 3 -25 7 -22 24 3 24
14 0 19 5 17 18 -4 22 -46 29 -54 8z m36 -6 c0 -5 -4 -10 -10 -10 -5 0 -10 5
-10 10 0 6 5 10 10 10 6 0 10 -4 10 -10z"/>
<path d="M2541 1750 c1 -24 3 -28 6 -12 3 13 11 26 19 29 21 8 17 22 -6 20
-16 -1 -20 -8 -19 -37z"/>
<path d="M2630 1741 c0 -28 5 -51 10 -51 6 0 10 6 10 14 0 8 10 16 23 18 17 2
22 10 22 33 0 27 -4 30 -32 33 l-33 3 0 -50z m48 12 c-4 -22 -22 -20 -26 1 -2
10 3 16 13 16 10 0 15 -7 13 -17z"/>
<path d="M2724 1776 c-11 -29 0 -51 26 -51 21 0 25 5 25 30 0 24 -5 31 -23 33
-13 2 -24 -3 -28 -12z m39 -32 c-2 -7 -11 -10 -19 -7 -10 4 -11 10 -3 25 8 16
13 18 19 8 5 -7 6 -19 3 -26z"/>
<path d="M2805 1781 c-9 -9 -5 -61 5 -61 6 0 10 8 10 17 0 9 7 24 16 34 15 17
15 18 -5 16 -12 -1 -24 -3 -26 -6z"/>
<path d="M2943 1784 c23 -7 22 -20 -3 -27 -33 -9 -25 -37 11 -37 28 0 30 2 27
33 -2 26 -8 32 -28 34 -14 1 -18 0 -7 -3z m17 -44 c0 -5 -4 -10 -10 -10 -5 0
-10 5 -10 10 0 6 5 10 10 10 6 0 10 -4 10 -10z"/>
<path d="M3140 1775 c-19 -23 -8 -50 22 -53 19 -2 28 2 33 18 12 39 -29 66
-55 35z m38 -22 c-4 -22 -22 -20 -26 1 -2 10 3 16 13 16 10 0 15 -7 13 -17z"/>
<path d="M3221 1750 l1 -35 11 28 c6 15 14 27 19 27 4 0 8 4 8 9 0 6 -9 9 -20
8 -16 -1 -20 -8 -19 -37z"/>
<path d="M3400 1756 c0 -20 5 -36 10 -36 6 0 10 13 10 29 0 17 -4 33 -10 36
-6 4 -10 -8 -10 -29z"/>
<path d="M3440 1753 c0 -18 5 -33 10 -33 6 0 10 11 10 25 0 14 5 25 10 25 6 0
10 4 10 9 0 6 -9 9 -20 8 -16 -1 -20 -8 -20 -34z"/>
<path d="M3507 1783 c-11 -10 -8 -63 3 -63 6 0 10 16 10 35 0 36 -2 40 -13 28z"/>
<path d="M3547 1784 c-10 -11 -9 -64 2 -64 5 0 11 11 13 25 2 14 8 26 13 26 6
0 11 -12 13 -26 5 -37 24 -30 20 8 -2 26 -8 33 -28 35 -14 2 -29 0 -33 -4z"/>
<path d="M3630 1750 c0 -22 0 -43 0 -47 0 -5 12 -8 27 -8 33 0 43 24 13 32
-19 5 -21 8 -8 17 8 6 17 19 21 29 5 14 1 17 -23 17 -28 0 -30 -2 -30 -40z
m30 20 c0 -5 -5 -10 -11 -10 -5 0 -7 5 -4 10 3 6 8 10 11 10 2 0 4 -4 4 -10z
m10 -60 c0 -5 -7 -10 -15 -10 -8 0 -15 5 -15 10 0 6 7 10 15 10 8 0 15 -4 15
-10z"/>
<path d="M1521 1714 c0 -11 3 -14 6 -6 3 7 2 16 -1 19 -3 4 -6 -2 -5 -13z"/>
<path d="M5476 43 c4 -16 9 -31 11 -35 2 -5 184 -8 403 -8 l399 0 -14 33 -13
32 -396 3 -396 2 6 -27z"/>
</g>
</svg>
